<?xml version="1.0" encoding="UTF-8"?>
<svg version="1.1" xmlns="http://www.w3.org/2000/svg" width="512" height="512">
<path d="M0 0 C10.56 0 21.12 0 32 0 C32 15.84 32 31.68 32 48 C47.84 48 63.68 48 80 48 C80 32.16 80 16.32 80 0 C90.56 0 101.12 0 112 0 C112 15.84 112 31.68 112 48 C127.84 48 143.68 48 160 48 C160 32.16 160 16.32 160 0 C170.56 0 181.12 0 192 0 C192 15.84 192 31.68 192 48 C206.13423241 47.84273082 206.13423241 47.84273082 220.26782227 47.63964844 C234.73490384 47.49959623 247.39054261 48.89348268 260.375 55.8125 C261.03927002 56.15506836 261.70354004 56.49763672 262.38793945 56.85058594 C267.73251821 59.68379368 272.42738034 63.04020565 277 67 C278.18916016 67.89525391 278.18916016 67.89525391 279.40234375 68.80859375 C288.93320406 76.8489135 295.93673712 88.30001253 300 100 C300.35304199 100.98637451 300.70608398 101.97274902 301.06982422 102.98901367 C304.7649965 114.74586092 304.45125376 126.20866249 304.25 138.4375 C304.1675 145.553125 304.085 152.66875 304 160 C319.84 160 335.68 160 352 160 C352 170.56 352 181.12 352 192 C336.16 192 320.32 192 304 192 C304 207.84 304 223.68 304 240 C319.84 240 335.68 240 352 240 C352 250.56 352 261.12 352 272 C336.16 272 320.32 272 304 272 C304 287.84 304 303.68 304 320 C319.84 320 335.68 320 352 320 C352 330.56 352 341.12 352 352 C336.16 352 320.32 352 304 352 C304.15726918 366.13423241 304.15726918 366.13423241 304.36035156 380.26782227 C304.50040377 394.73490384 303.10651732 407.39054261 296.1875 420.375 C295.84493164 421.03927002 295.50236328 421.70354004 295.14941406 422.38793945 C292.31620632 427.73251821 288.95979435 432.42738034 285 437 C284.40316406 437.79277344 283.80632812 438.58554687 283.19140625 439.40234375 C275.1510865 448.93320406 263.69998747 455.93673712 252 460 C251.01362549 460.35304199 250.02725098 460.70608398 249.01098633 461.06982422 C237.25413908 464.7649965 225.79133751 464.45125376 213.5625 464.25 C206.446875 464.1675 199.33125 464.085 192 464 C192 479.84 192 495.68 192 512 C181.44 512 170.88 512 160 512 C160 496.16 160 480.32 160 464 C144.16 464 128.32 464 112 464 C112 479.84 112 495.68 112 512 C101.44 512 90.88 512 80 512 C80 496.16 80 480.32 80 464 C64.16 464 48.32 464 32 464 C32 479.84 32 495.68 32 512 C21.44 512 10.88 512 0 512 C0 496.16 0 480.32 0 464 C-14.13423241 464.15726918 -14.13423241 464.15726918 -28.26782227 464.36035156 C-42.73490384 464.50040377 -55.39054261 463.10651732 -68.375 456.1875 C-69.03927002 455.84493164 -69.70354004 455.50236328 -70.38793945 455.14941406 C-75.73251821 452.31620632 -80.42738034 448.95979435 -85 445 C-85.79277344 444.40316406 -86.58554688 443.80632812 -87.40234375 443.19140625 C-96.93320406 435.1510865 -103.93673712 423.69998747 -108 412 C-108.35304199 411.01362549 -108.70608398 410.02725098 -109.06982422 409.01098633 C-112.7649965 397.25413908 -112.45125376 385.79133751 -112.25 373.5625 C-112.12625 362.8890625 -112.12625 362.8890625 -112 352 C-127.84 352 -143.68 352 -160 352 C-160 341.44 -160 330.88 -160 320 C-144.16 320 -128.32 320 -112 320 C-112 304.16 -112 288.32 -112 272 C-127.84 272 -143.68 272 -160 272 C-160 261.44 -160 250.88 -160 240 C-144.16 240 -128.32 240 -112 240 C-112 224.16 -112 208.32 -112 192 C-127.84 192 -143.68 192 -160 192 C-160 181.44 -160 170.88 -160 160 C-144.16 160 -128.32 160 -112 160 C-112.15726918 145.86576759 -112.15726918 145.86576759 -112.36035156 131.73217773 C-112.50040377 117.26509616 -111.10651732 104.60945739 -104.1875 91.625 C-103.84493164 90.96072998 -103.50236328 90.29645996 -103.14941406 89.61206055 C-100.31620632 84.26748179 -96.95979435 79.57261966 -93 75 C-92.10474609 73.81083984 -92.10474609 73.81083984 -91.19140625 72.59765625 C-83.1510865 63.06679594 -71.69998747 56.06326288 -60 52 C-58.52043823 51.47043701 -58.52043823 51.47043701 -57.01098633 50.93017578 C-45.25413908 47.2350035 -33.79133751 47.54874624 -21.5625 47.75 C-14.446875 47.8325 -7.33125 47.915 0 48 C0 32.16 0 16.32 0 0 Z " fill="#83A2BD" transform="translate(160,0)"/>
<path d="M0 0 C1.56775372 -0.00807831 1.56775372 -0.00807831 3.16717923 -0.01631981 C6.65691278 -0.03058654 10.14626633 -0.02349863 13.63601685 -0.01637268 C16.14311019 -0.02207692 18.65020094 -0.02904138 21.1572876 -0.03717041 C27.25299315 -0.0532492 33.34855921 -0.05520349 39.44427954 -0.04995751 C44.40110751 -0.04590977 49.35790507 -0.04736652 54.3147316 -0.05270576 C55.37451359 -0.0538284 55.37451359 -0.0538284 56.45570532 -0.05497371 C57.89118774 -0.05650525 59.32667016 -0.0580436 60.76215257 -0.05958868 C74.21280106 -0.07330502 87.66339133 -0.06788227 101.11403848 -0.05640347 C113.40616548 -0.04647339 125.69814191 -0.05940934 137.99024568 -0.08333766 C150.62636156 -0.1077494 163.26240736 -0.11733135 175.89854634 -0.11068493 C182.98693224 -0.10719713 190.07520239 -0.10939559 197.1635704 -0.12693596 C203.83015722 -0.14322862 210.49641113 -0.1384441 217.16300583 -0.11963081 C219.60667364 -0.11594618 222.05036275 -0.11904966 224.49401093 -0.1295166 C227.83601832 -0.14273619 231.17707596 -0.13116916 234.51904297 -0.11352539 C235.48054036 -0.1231304 236.44203775 -0.1327354 237.43267143 -0.14263147 C246.35582506 -0.04604837 254.25348004 2.51874625 260.85525513 8.68455505 C267.91881057 16.54095856 269.68681092 24.44409403 269.65393066 34.76066589 C269.65846178 35.80412619 269.66299289 36.84758648 269.66766131 37.92266679 C269.68031976 41.41853656 269.67868398 44.91425083 269.67703247 48.41014099 C269.68301684 50.91693828 269.68982217 53.42373372 269.6973877 55.93052673 C269.71322867 62.03316192 269.71949654 68.13574017 269.72061245 74.23839399 C269.72156377 79.20098559 269.72567824 84.16356447 269.7320137 89.12615204 C269.74962249 103.20646025 269.75885325 117.286738 269.75735275 131.36705729 C269.75727284 132.12570851 269.75719293 132.88435972 269.7571106 133.66600037 C269.75702883 134.42558163 269.75694707 135.1851629 269.75686283 135.96776178 C269.75605024 148.27294369 269.77518211 160.57800311 269.80338733 172.88314959 C269.8321422 185.52823532 269.84592616 198.17326136 269.84419978 210.81838059 C269.84353673 217.9135113 269.84899142 225.00851362 269.87055588 232.10361481 C269.89071322 238.77837008 269.89006743 245.45280971 269.87552261 252.12759399 C269.87343249 254.57448981 269.87814746 257.02140254 269.89024353 259.46826935 C269.90571252 262.81475006 269.89637584 266.16029855 269.88098145 269.50675964 C269.89126857 270.46962127 269.9015557 271.43248291 269.91215456 272.42452216 C269.81693351 281.82446752 266.9223956 289.71645734 260.45681763 296.62986755 C255.09422093 301.18301569 248.10727489 304.50339249 241.03163052 304.52469444 C240.1365917 304.52976899 239.24155288 304.53484353 238.31939167 304.54007185 C237.33497768 304.5405696 236.35056369 304.54106736 235.33631897 304.5415802 C234.2913384 304.54596245 233.24635782 304.55034471 232.16971117 304.55485976 C228.65074682 304.56826716 225.13180753 304.57443103 221.61282349 304.58055115 C219.09661749 304.58845065 216.58041264 304.59671951 214.06420898 304.60533142 C206.49990768 304.62930547 198.93560759 304.64448319 191.37128028 304.65739149 C189.23411976 304.66110405 187.09695988 304.66507725 184.9598 304.66914415 C171.68397846 304.6943842 158.40815588 304.71643405 145.13231564 304.7288723 C142.05729608 304.73180193 138.98227656 304.7347636 135.90725708 304.73777771 C134.7608545 304.73889679 134.7608545 304.73889679 133.59129227 304.74003847 C121.21800335 304.75268483 108.84485837 304.78589811 96.47163671 304.82757954 C83.76337303 304.87003797 71.05518295 304.89357194 58.34684855 304.89879286 C51.21362148 304.90220285 44.08061923 304.9139088 36.94746208 304.9468956 C30.23414025 304.97789017 23.52127807 304.98329109 16.80787277 304.97151184 C14.34645567 304.97129102 11.88502045 304.97960267 9.423666 304.99716568 C6.05716641 305.01987584 2.69208448 305.01155204 -0.67442322 304.99568176 C-1.64322216 305.00956385 -2.61202109 305.02344594 -3.61017758 305.03774869 C-13.04674991 304.92851444 -20.97307786 301.02809707 -27.61349487 294.38768005 C-33.44001731 286.56488391 -34.91153438 279.62020307 -34.88092041 270.00796509 C-34.88545152 268.96379923 -34.88998264 267.91963337 -34.89465106 266.84382612 C-34.90730948 263.34562239 -34.90567373 259.84757407 -34.90402222 256.34934998 C-34.91000655 253.84093017 -34.91681187 251.33251221 -34.92437744 248.82409668 C-34.94021801 242.71778649 -34.94648624 236.61153321 -34.9476022 230.5052044 C-34.94855345 225.54022054 -34.95266758 220.57524939 -34.95900345 215.61026955 C-34.97661137 201.52489568 -34.98584302 187.43955226 -34.9843425 173.3541673 C-34.98426259 172.59525337 -34.98418268 171.83633943 -34.98410034 171.0544281 C-34.98401858 170.29458452 -34.98393682 169.53474094 -34.98385258 168.7518718 C-34.9830398 156.43954785 -35.00217654 144.12734628 -35.03037708 131.81505772 C-35.05912351 119.16432676 -35.0729164 106.51365546 -35.07118952 93.86289102 C-35.07052623 86.76387984 -35.07599186 79.66499695 -35.09754562 72.56601524 C-35.11768935 65.88880075 -35.11706581 59.21190186 -35.10251236 52.53465843 C-35.10042073 50.08573003 -35.10514612 47.63678475 -35.11723328 45.18788528 C-35.13268085 41.84105397 -35.12337973 38.49515729 -35.10797119 35.14834595 C-35.11825832 34.18257147 -35.12854544 33.216797 -35.1391443 32.22175664 C-35.0467125 23.11716676 -31.7267773 15.18021608 -25.61349487 8.38768005 C-18.03477941 1.55197591 -9.90797651 -0.06164589 0 0 Z " fill="#5780A5" transform="translate(138.61349487304688,103.61231994628906)"/>
<path d="M0 0 C10.56 0 21.12 0 32 0 C32 15.84 32 31.68 32 48 C46.13423241 47.84273082 46.13423241 47.84273082 60.26782227 47.63964844 C74.73490384 47.49959623 87.39054261 48.89348268 100.375 55.8125 C101.37140503 56.32635254 101.37140503 56.32635254 102.38793945 56.85058594 C107.73251821 59.68379368 112.42738034 63.04020565 117 67 C117.79277344 67.59683594 118.58554687 68.19367188 119.40234375 68.80859375 C128.93320406 76.8489135 135.93673712 88.30001253 140 100 C140.35304199 100.98637451 140.70608398 101.97274902 141.06982422 102.98901367 C144.7649965 114.74586092 144.45125376 126.20866249 144.25 138.4375 C144.1675 145.553125 144.085 152.66875 144 160 C159.84 160 175.68 160 192 160 C192 170.56 192 181.12 192 192 C176.16 192 160.32 192 144 192 C144 207.84 144 223.68 144 240 C159.84 240 175.68 240 192 240 C192 250.56 192 261.12 192 272 C176.16 272 160.32 272 144 272 C144 287.84 144 303.68 144 320 C159.84 320 175.68 320 192 320 C192 330.56 192 341.12 192 352 C176.16 352 160.32 352 144 352 C144.15726918 366.13423241 144.15726918 366.13423241 144.36035156 380.26782227 C144.50040377 394.73490384 143.10651732 407.39054261 136.1875 420.375 C135.84493164 421.03927002 135.50236328 421.70354004 135.14941406 422.38793945 C132.31620632 427.73251821 128.95979435 432.42738034 125 437 C124.10474609 438.18916016 124.10474609 438.18916016 123.19140625 439.40234375 C115.1510865 448.93320406 103.69998747 455.93673712 92 460 C91.01362549 460.35304199 90.02725098 460.70608398 89.01098633 461.06982422 C77.25413908 464.7649965 65.79133751 464.45125376 53.5625 464.25 C46.446875 464.1675 39.33125 464.085 32 464 C32 479.84 32 495.68 32 512 C21.44 512 10.88 512 0 512 C0 496.16 0 480.32 0 464 C-21.12 464 -42.24 464 -64 464 C-64 445.52 -64 427.04 -64 408 C-50.31402344 407.96132813 -50.31402344 407.96132813 -36.3515625 407.921875 C-30.56378075 407.89670211 -24.77603207 407.87052803 -18.98828125 407.83984375 C-9.80615484 407.79134949 -0.62413841 407.74688792 8.55810547 407.72900391 C15.24648621 407.71595828 21.93464249 407.6889199 28.62289679 407.64538693 C32.16120428 407.62283703 35.69923559 407.60708539 39.23762131 407.60811615 C43.19689257 407.60900644 47.15560356 407.57864327 51.11474609 407.54589844 C52.27568787 407.5509288 53.43662964 407.55595917 54.63275146 407.56114197 C64.04645427 407.44106856 72.39637571 405.38139385 79.46484375 398.84765625 C83.87002875 393.54574148 87.11816706 386.5821192 87.13422108 379.66074276 C87.14090784 378.32340962 87.14090784 378.32340962 87.14772969 376.95905966 C87.14754533 375.97853661 87.14736097 374.99801357 87.14717102 373.98777771 C87.15084771 372.94688069 87.1545244 371.90598367 87.1583125 370.83354431 C87.16936897 367.32839636 87.17319654 363.82327803 87.17700195 360.31811523 C87.18326518 357.81176153 87.18991186 355.30540876 87.19691467 352.79905701 C87.21615738 345.26441466 87.22674599 337.7297775 87.23564246 330.19511685 C87.24002659 326.64546359 87.24539315 323.09581182 87.25063133 319.54615974 C87.26764503 307.74309696 87.28213792 295.9400351 87.28938007 284.13696194 C87.29128993 281.07397396 87.29321026 278.01098599 87.29516602 274.94799805 C87.29564976 274.18672027 87.2961335 273.4254425 87.2966319 272.64109571 C87.30492738 260.31632959 87.3302555 247.99166068 87.36274669 235.66693699 C87.39584528 223.00839286 87.41383145 210.34989808 87.41702431 197.69131047 C87.41918706 190.58606602 87.4279008 183.48096324 87.45348549 176.37576103 C87.47750883 169.68874641 87.48100062 163.00203039 87.47072411 156.3149662 C87.47022854 153.86323067 87.47655509 151.41148262 87.49028015 148.95978546 C87.50799848 145.60658856 87.50089218 142.25430578 87.48774719 138.90110779 C87.49871644 137.9361998 87.50968568 136.97129181 87.52098733 135.97714418 C87.44733492 128.16797167 85.52124623 121.00017982 80.75 114.6875 C72.04740009 106.18268645 63.40270175 104.7029024 51.56884766 104.68115234 C50.31951447 104.67110672 49.07018127 104.6610611 47.7829895 104.65071106 C44.37019437 104.62517348 40.95756443 104.60828539 37.54471254 104.59528303 C33.97323188 104.57961768 30.40183471 104.55283837 26.83041382 104.5272522 C20.07327857 104.48052454 13.3161275 104.44375141 6.55891359 104.41057932 C-2.57624755 104.36515599 -11.7113052 104.30430532 -20.84638023 104.24433136 C-35.23086819 104.1502994 -49.61538611 104.07683657 -64 104 C-64 85.52 -64 67.04 -64 48 C-42.88 48 -21.76 48 0 48 C0 32.16 0 16.32 0 0 Z " fill="#7799B7" transform="translate(320,0)"/>
<path d="M0 0 C1.87443787 -0.00065712 1.87443787 -0.00065712 3.78674316 -0.00132751 C7.19133715 0.00039673 10.59537632 0.01537699 13.99987221 0.03639436 C17.56593801 0.05522772 21.13201226 0.05691682 24.69812012 0.06047058 C31.44112439 0.06977159 38.18398165 0.0943588 44.92692137 0.12451905 C54.04564919 0.16441508 63.16441759 0.18053366 72.28321075 0.1980257 C86.63618277 0.2261815 100.98884466 0.28596376 115.34179688 0.34057617 C115.34179688 24.10057617 115.34179688 47.86057617 115.34179688 72.34057617 C109.34179687 68.34057617 109.34179687 68.34057617 107.13085938 66.81323242 C93.73724174 58.08562237 78.43175563 54.9754367 62.76757812 58.03979492 C47.38098896 62.35532348 35.54790775 70.61035163 27.34179688 84.34057617 C21.45950343 95.5138214 20.04165593 105.05880161 20.02294922 117.55932617 C20.01363829 118.98906514 20.0034679 120.41879872 19.99250793 121.848526 C19.96532503 125.70948802 19.95009348 129.57041379 19.93707991 133.43144608 C19.92139784 137.47403343 19.89462392 141.51654733 19.86904907 145.55908203 C19.82235085 153.2050952 19.78556352 160.85112233 19.7523762 168.49720478 C19.71409136 177.20585537 19.66469795 185.91443202 19.61439204 194.62302017 C19.51120544 212.52882425 19.42336827 230.43465967 19.34179688 248.34057617 C29.90179688 248.34057617 40.46179688 248.34057617 51.34179688 248.34057617 C51.34179688 229.86057617 51.34179688 211.38057617 51.34179688 192.34057617 C67.18179688 192.34057617 83.02179688 192.34057617 99.34179688 192.34057617 C99.34179688 210.82057617 99.34179688 229.30057617 99.34179688 248.34057617 C104.62179688 248.34057617 109.90179688 248.34057617 115.34179688 248.34057617 C115.34179688 266.82057617 115.34179688 285.30057617 115.34179688 304.34057617 C83.39492508 304.54209134 83.39492508 304.54209134 69.97460938 304.5847168 C60.71991064 304.61434809 51.46544005 304.64912124 42.2109375 304.71777344 C35.46993418 304.76775585 28.72911653 304.79990193 21.98793304 304.81101865 C18.42151191 304.81751255 14.85562172 304.83267304 11.28937149 304.86922646 C7.29896175 304.90979212 3.30946317 304.91051617 -0.68115234 304.90820312 C-1.85144485 304.9261795 -3.02173737 304.94415588 -4.22749329 304.962677 C-14.39766577 304.8990811 -22.45135803 301.54742126 -29.65820312 294.34057617 C-35.48472556 286.51778003 -36.95624263 279.57309919 -36.92562866 269.96086121 C-36.93015978 268.91669535 -36.93469089 267.87252948 -36.93935931 266.79672223 C-36.95201773 263.29851851 -36.95038198 259.80047019 -36.94873047 256.30224609 C-36.9547148 253.79382629 -36.96152012 251.28540833 -36.96908569 248.7769928 C-36.98492626 242.67068261 -36.99119449 236.56442933 -36.99231045 230.45810052 C-36.9932617 225.49311666 -36.99737584 220.52814551 -37.0037117 215.56316566 C-37.02131963 201.4777918 -37.03055127 187.39244837 -37.02905075 173.30706342 C-37.02897084 172.54814949 -37.02889093 171.78923555 -37.02880859 171.00732422 C-37.02872683 170.24748064 -37.02864507 169.48763706 -37.02856083 168.70476792 C-37.02774805 156.39244397 -37.04688479 144.08024239 -37.07508533 131.76795384 C-37.10383176 119.11722288 -37.11762466 106.46655157 -37.11589777 93.81578714 C-37.11523448 86.71677596 -37.12070011 79.61789307 -37.14225388 72.51891136 C-37.16239761 65.84169687 -37.16177406 59.16479798 -37.14722061 52.48755455 C-37.14512899 50.03862614 -37.14985437 47.58968087 -37.16194153 45.1407814 C-37.1773891 41.79395009 -37.16808799 38.44805341 -37.15267944 35.10124207 C-37.16296657 34.13546759 -37.1732537 33.16969312 -37.18385255 32.17465276 C-37.09142075 23.07006288 -33.77148555 15.1331122 -27.65820312 8.34057617 C-19.39396596 0.88655834 -10.737654 -0.09914501 0 0 Z " fill="#648BAD" transform="translate(140.658203125,103.659423828125)"/>
<path d="M0 0 C12.24282461 9.12495756 20.88037242 20.22311679 23.8386755 35.4909153 C24.29596742 38.68125959 24.42384642 41.68215461 24.42103577 44.90316772 C24.42309776 46.73299698 24.42309776 46.73299698 24.42520142 48.59979248 C24.42166303 49.9381106 24.41802823 51.27642847 24.41430664 52.61474609 C24.41402435 54.03433225 24.41418333 55.45391856 24.41474915 56.87350464 C24.41503547 60.71601487 24.40916538 64.55849373 24.40217519 68.40099669 C24.39591421 72.42086343 24.39533568 76.44073094 24.39414978 80.46060181 C24.39104456 88.06775868 24.38284207 95.67490115 24.37280029 103.28205168 C24.36161404 111.94466005 24.35612237 120.60726912 24.35110486 129.26988292 C24.34065878 147.08487969 24.32232335 164.89985671 24.30078125 182.71484375 C13.74078125 182.71484375 3.18078125 182.71484375 -7.69921875 182.71484375 C-7.69921875 164.23484375 -7.69921875 145.75484375 -7.69921875 126.71484375 C-23.53921875 126.71484375 -39.37921875 126.71484375 -55.69921875 126.71484375 C-55.69921875 145.19484375 -55.69921875 163.67484375 -55.69921875 182.71484375 C-66.25921875 182.71484375 -76.81921875 182.71484375 -87.69921875 182.71484375 C-87.78970959 164.03370578 -87.86331123 145.35274682 -87.90646744 126.67144489 C-87.92704323 117.99629653 -87.95506785 109.32129458 -88.00097656 100.64624023 C-88.04099767 93.08008332 -88.06668773 85.51403251 -88.07557273 77.94777268 C-88.08076179 73.94596249 -88.09285233 69.9444557 -88.12213898 65.9427433 C-88.1495504 62.16620164 -88.15761266 58.39008462 -88.15164948 54.61345291 C-88.15325248 52.58697809 -88.17463925 50.56054814 -88.19689941 48.53419495 C-88.12658396 32.70394455 -82.80297234 18.37300696 -71.890625 6.77734375 C-52.01537841 -11.92877069 -22.90966674 -15.13193114 0 0 Z " fill="#29DCF4" transform="translate(247.69921875,169.28515625)"/>
<path d="M0 0 C10.56 0 21.12 0 32 0 C32 63.36 32 126.72 32 192 C21.44 192 10.88 192 0 192 C0 128.64 0 65.28 0 0 Z " fill="#11D0EA" transform="translate(320,160)"/>
<path d="M0 0 C5.62403637 3.85882787 9.95615292 9.00305022 12.140625 15.46875 C12.38113403 18.12007141 12.38113403 18.12007141 12.36767578 20.9934082 C12.36752472 22.07415115 12.36737366 23.1548941 12.36721802 24.26838684 C12.35689545 25.4237645 12.34657288 26.57914215 12.3359375 27.76953125 C12.3331076 28.96104294 12.33027771 30.15255463 12.32736206 31.38017273 C12.31617933 35.18063456 12.2910778 38.98085956 12.265625 42.78125 C12.25559275 45.36002263 12.24646733 47.93879897 12.23828125 50.51757812 C12.21794903 56.83479977 12.17879563 63.1515102 12.140625 69.46875 C-3.699375 69.46875 -19.539375 69.46875 -35.859375 69.46875 C-35.95138183 61.92418974 -36.03097273 54.38158907 -36.07910156 46.83691406 C-36.09917228 44.2723937 -36.12643501 41.70791885 -36.16113281 39.14355469 C-36.20984855 35.44975529 -36.23239013 31.75656291 -36.25 28.0625 C-36.27064514 26.9226062 -36.29129028 25.7827124 -36.31256104 24.60827637 C-36.31481378 16.55156064 -35.16615862 11.19553655 -29.67578125 5.0078125 C-28.56009766 4.06035156 -28.56009766 4.06035156 -27.421875 3.09375 C-26.68066406 2.44664062 -25.93945312 1.79953125 -25.17578125 1.1328125 C-17.68122943 -4.25113198 -8.10718954 -4.08275732 0 0 Z " fill="#648BAD" transform="translate(227.859375,194.53125)"/>
<path d="M0 0 C9.48640336 9.48640336 15.55985596 20.31477972 16.12304783 33.98718834 C16.12212604 35.0435631 16.12120424 36.09993786 16.12025452 37.18832397 C16.12162918 38.40821014 16.12300385 39.62809631 16.12442017 40.88494873 C16.12088178 42.22326685 16.11724698 43.56158472 16.11352539 44.89990234 C16.1132431 46.3194885 16.11340208 47.73907481 16.1139679 49.15866089 C16.11425422 53.00117112 16.10838413 56.84364998 16.10139394 60.68615294 C16.09513296 64.70601968 16.09455443 68.72588719 16.09336853 72.74575806 C16.09026331 80.35291493 16.08206082 87.9600574 16.07201904 95.56720793 C16.06083279 104.2298163 16.05534112 112.89242537 16.05032361 121.55503917 C16.03987753 139.3700345 16.02209177 157.18501556 16 175 C10.72 175 5.44 175 0 175 C0 117.25 0 59.5 0 0 Z " fill="#11CFE9" transform="translate(256,177)"/>
<path d="M0 0 C10.56 0 21.12 0 32 0 C32 15.84 32 31.68 32 48 C21.44 48 10.88 48 0 48 C0 32.16 0 16.32 0 0 Z " fill="#11D0EA" transform="translate(320,464)"/>
<path d="M0 0 C10.56 0 21.12 0 32 0 C32 15.84 32 31.68 32 48 C21.44 48 10.88 48 0 48 C0 32.16 0 16.32 0 0 Z " fill="#11D0EA" transform="translate(240,464)"/>
<path d="M0 0 C10.56 0 21.12 0 32 0 C32 15.84 32 31.68 32 48 C21.44 48 10.88 48 0 48 C0 32.16 0 16.32 0 0 Z " fill="#29DDF5" transform="translate(160,464)"/>
<path d="M0 0 C15.84 0 31.68 0 48 0 C48 10.56 48 21.12 48 32 C32.16 32 16.32 32 0 32 C0 21.44 0 10.88 0 0 Z " fill="#11D0EA" transform="translate(464,320)"/>
<path d="M0 0 C15.84 0 31.68 0 48 0 C48 10.56 48 21.12 48 32 C32.16 32 16.32 32 0 32 C0 21.44 0 10.88 0 0 Z " fill="#29DDF5" transform="translate(0,320)"/>
<path d="M0 0 C15.84 0 31.68 0 48 0 C48 10.56 48 21.12 48 32 C32.16 32 16.32 32 0 32 C0 21.44 0 10.88 0 0 Z " fill="#11D0EA" transform="translate(464,240)"/>
<path d="M0 0 C15.84 0 31.68 0 48 0 C48 10.56 48 21.12 48 32 C32.16 32 16.32 32 0 32 C0 21.44 0 10.88 0 0 Z " fill="#29DDF5" transform="translate(0,240)"/>
<path d="M0 0 C15.84 0 31.68 0 48 0 C48 10.56 48 21.12 48 32 C32.16 32 16.32 32 0 32 C0 21.44 0 10.88 0 0 Z " fill="#11D0EA" transform="translate(464,160)"/>
<path d="M0 0 C15.84 0 31.68 0 48 0 C48 10.56 48 21.12 48 32 C32.16 32 16.32 32 0 32 C0 21.44 0 10.88 0 0 Z " fill="#29DDF5" transform="translate(0,160)"/>
<path d="M0 0 C10.56 0 21.12 0 32 0 C32 15.84 32 31.68 32 48 C21.44 48 10.88 48 0 48 C0 32.16 0 16.32 0 0 Z " fill="#11D0EA" transform="translate(320,0)"/>
<path d="M0 0 C10.56 0 21.12 0 32 0 C32 15.84 32 31.68 32 48 C21.44 48 10.88 48 0 48 C0 32.16 0 16.32 0 0 Z " fill="#11D0EA" transform="translate(240,0)"/>
<path d="M0 0 C10.56 0 21.12 0 32 0 C32 15.84 32 31.68 32 48 C21.44 48 10.88 48 0 48 C0 32.16 0 16.32 0 0 Z " fill="#29DDF5" transform="translate(160,0)"/>
<path d="M0 0 C5.28 0 10.56 0 16 0 C16 15.84 16 31.68 16 48 C10.72 48 5.44 48 0 48 C0 32.16 0 16.32 0 0 Z " fill="#29DDF5" transform="translate(240,464)"/>
<path d="M0 0 C5.28 0 10.56 0 16 0 C16 15.84 16 31.68 16 48 C10.72 48 5.44 48 0 48 C0 32.16 0 16.32 0 0 Z " fill="#29DDF5" transform="translate(240,0)"/>
</svg>
