<?xml version="1.0" encoding="UTF-8"?>
<svg version="1.1" xmlns="http://www.w3.org/2000/svg" width="512" height="512">
<path d="M0 0 C3.09818479 4.54400436 3.7810678 8.65022057 3 14 C1.64116814 17.71890824 0.67690306 19.52346166 -2.57206726 21.81072998 C-5.21509544 23.77779206 -5.21509544 23.77779206 -5.63923645 26.68292236 C-5.64589828 27.70440369 -5.65256012 28.72588501 -5.65942383 29.77832031 C-5.68888847 31.51967255 -5.68888847 31.51967255 -5.71894836 33.29620361 C-5.71501572 34.54423767 -5.71108307 35.79227173 -5.70703125 37.078125 C-5.72971321 39.00069122 -5.72971321 39.00069122 -5.75285339 40.96209717 C-5.79268574 44.36192634 -5.80289247 47.7612199 -5.80688477 51.16125488 C-5.81621987 54.63371002 -5.85363551 58.1058509 -5.88867188 61.578125 C-5.95322915 68.38541541 -5.98388777 75.19242427 -6 82 C-1.71 82 2.58 82 7 82 C7.33 80.02 7.66 78.04 8 76 C9.09879692 73.14965884 10.55301629 70.50113585 12 67.8125 C12.40154297 67.06291016 12.80308594 66.31332031 13.21679688 65.54101562 C16.7922366 59.05390736 20.9689011 53.44521737 26 48 C26.68449219 47.22398438 27.36898437 46.44796875 28.07421875 45.6484375 C36.7060862 36.36239895 48.15708679 29.41270191 60 25 C61.02351562 24.608125 62.04703125 24.21625 63.1015625 23.8125 C83.12425554 17.30399481 105.37694381 19.62140794 124.125 28.625 C145.00337736 39.3084244 161.53198129 57.63347159 169 80 C169 80.66 169 81.32 169 82 C173.29 82 177.58 82 182 82 C182.00487218 74.52364289 181.98440974 67.04837982 181.9197216 59.57227802 C181.89068635 56.10049381 181.87262303 52.62938379 181.87988281 49.1574707 C181.88774949 45.16292373 181.84744926 41.17010943 181.8046875 37.17578125 C181.8183284 35.31147209 181.8183284 35.31147209 181.83224487 33.40950012 C181.93867331 27.44141748 181.93867331 27.44141748 179.65855408 22.14648438 C177.8828174 20.60856378 177.8828174 20.60856378 175 19 C172.28443778 14.91491793 172.47984257 10.74746862 173 6 C174.7624733 0.81049529 177.13396413 -1.52107607 182 -4 C186.36524934 -5.29537887 189.36450018 -5.19064995 193.75 -3.875 C198.49157243 -1.13947744 200.77944583 1.68694022 202.375 6.875 C203.25199087 11.07033472 202.72456199 14.02600933 201 18 C198.7940375 20.53685688 197.01023556 22.49488222 194 24 C193.99635437 25.30434494 193.99270874 26.60868988 193.98895264 27.95256042 C193.95202655 40.23913412 193.89427978 52.52545662 193.81609726 64.8118391 C193.77657233 71.12855768 193.74440831 77.44513579 193.72900391 83.76196289 C193.7138706 89.8569955 193.67948365 95.95164209 193.63169098 102.04650307 C193.61684293 104.37289387 193.60895703 106.69933978 193.60811615 109.02577782 C193.60575513 112.28217195 193.57874371 115.53749178 193.54589844 118.79370117 C193.5509288 119.75755234 193.55595917 120.7214035 193.56114197 121.71446228 C193.49482512 125.95845262 193.37554907 128.37455347 191.15338135 132.07539368 C187.30503239 135.51489441 183.77298687 135.10800905 178.8125 135.0625 C177.54019531 135.05347656 176.26789063 135.04445312 174.95703125 135.03515625 C173.49330078 135.01775391 173.49330078 135.01775391 172 135 C171.88914062 135.87011719 171.77828125 136.74023438 171.6640625 137.63671875 C169.81809813 146.98598537 164.01976809 154.8394996 158 162 C157.38125 162.81855469 156.7625 163.63710937 156.125 164.48046875 C147.69687264 174.47337711 133.58737108 182.00162737 121 185 C119.35 185 117.7 185 116 185 C116 190.28 116 195.56 116 201 C118.31 201 120.62 201 123 201 C125.390625 202.578125 125.390625 202.578125 127 205 C127.609375 208.234375 127.609375 208.234375 127.75 211.75 C127.80671875 212.92046875 127.8634375 214.0909375 127.921875 215.296875 C127.96054687 216.63492188 127.96054687 216.63492188 128 218 C129.11375 218.3403125 130.2275 218.680625 131.375 219.03125 C139.35373332 221.53797173 147.07657523 224.24614636 154.5625 228 C155.48772461 228.46116211 155.48772461 228.46116211 156.43164062 228.93164062 C159.10997608 230.31817441 161.56457653 231.64234867 163.90405273 233.56396484 C170.97560479 239.20481741 178.30761319 238.76703951 186.9375 238.625 C200.71341693 238.46714602 210.40042622 239.64922499 220.79296875 249.55078125 C224.54873024 253.7186794 228 258.24366736 228 264 C228.73421834 263.99631283 229.46843668 263.99262566 230.22490406 263.98882675 C248.07629925 263.90055355 265.92765098 263.83432839 283.77921772 263.79275131 C292.41205487 263.77211137 301.04474649 263.74396358 309.67749023 263.69824219 C317.2003351 263.65841806 324.72307459 263.63257761 332.24602193 263.62364602 C336.2307449 263.61842371 340.21516637 263.60612013 344.19979286 263.57707977 C347.94839801 263.54998026 351.69657674 263.54154374 355.44527054 263.54756927 C356.82277047 263.54646656 358.20028428 263.53847973 359.57769966 263.5231781 C361.4551633 263.50334015 363.33285447 263.51043096 365.21040344 263.51898193 C366.26216924 263.51529476 367.31393503 263.51160759 368.39757252 263.50780869 C371 264 371 264 372.83059978 265.84256363 C374.45069922 268.83149881 374.55798523 270.65208864 374 274 C371.75 276.375 371.75 276.375 369 278 C367.68 278 366.36 278 365 278 C365 288.56 365 299.12 365 310 C366.98 310.33 368.96 310.66 371 311 C372.875 312.125 372.875 312.125 374 314 C374.65044248 320.07079646 374.65044248 320.07079646 372.6875 322.875 C369.66108447 324.89261035 366.865376 325.15886859 363.33203125 325.31640625 C362.43935547 325.35830078 361.54667969 325.40019531 360.62695312 325.44335938 C359.69818359 325.48267578 358.76941406 325.52199219 357.8125 325.5625 C356.87212891 325.60568359 355.93175781 325.64886719 354.96289062 325.69335938 C352.64207146 325.79938665 350.32114675 325.90145029 348 326 C348.53906982 326.38961914 349.07813965 326.77923828 349.63354492 327.18066406 C358.10782795 333.40056745 362.97581673 339.47424701 365 350 C366.07528098 357.88539384 363.85309123 365.76697601 359.3125 372.25 C355.68370596 376.7336979 351.16746543 380.41626729 346 383 C347.04800781 383.04898437 348.09601563 383.09796875 349.17578125 383.1484375 C350.55471354 383.22348143 351.9336185 383.29902857 353.3125 383.375 C354.00279297 383.4059375 354.69308594 383.436875 355.40429688 383.46875 C359.06990789 383.68124919 360.87900792 383.91933861 364 386 C365 389.3125 365 389.3125 365 393 C362.875 395.9375 362.875 395.9375 360 398 C358.35 398 356.7 398 355 398 C355 408.56 355 419.12 355 430 C357.31 430.33 359.62 430.66 362 431 C364 432.625 364 432.625 365 435 C365 438.5625 365 438.5625 364 442 C359.68518337 445.63233019 355.51441902 445.41948602 350.15625 445.36749268 C349.26529129 445.37076152 348.37433258 445.37403036 347.45637512 445.37739825 C344.47074356 445.38468147 341.48560162 445.37051927 338.5 445.35644531 C336.35961829 445.35723615 334.21923672 445.3593333 332.07885742 445.36264038 C326.26488521 445.36777773 320.45108978 445.35423204 314.637146 445.33711338 C308.55627878 445.3220859 302.47541393 445.3232516 296.39453125 445.32244873 C286.18226094 445.31875523 275.97005781 445.30378401 265.7578125 445.28125 C252.64606888 445.25237717 239.53437938 445.24202677 226.42260742 445.2375679 C215.15557187 445.23358825 203.8885481 445.22108612 192.621521 445.20722103 C188.99719266 445.20312182 185.37286473 445.20019629 181.74853516 445.19742584 C176.05553584 445.19253217 170.3625693 445.18232755 164.66958618 445.16798782 C162.57858578 445.16346552 160.48758096 445.16062632 158.39657593 445.15958023 C155.54560103 445.15783386 152.69470806 445.14994912 149.84375 445.14044189 C148.59837212 445.14174162 148.59837212 445.14174162 147.32783508 445.1430676 C143.38814735 445.12331834 139.86393087 444.82219289 136 444 C133.82705753 443.90125949 131.65151439 443.85403105 129.47636414 443.84178162 C128.15688278 443.8319928 126.83740143 443.82220398 125.47793579 443.81211853 C124.0226444 443.80621504 122.56735264 443.80040455 121.11206055 443.79467773 C119.57439412 443.78509403 118.0367303 443.77508366 116.49906921 443.76467896 C112.33009348 443.73767716 108.16110647 443.71664205 103.99209189 443.69667697 C99.63320098 443.67478823 95.2743446 443.64741368 90.91548157 443.62062073 C82.66374661 443.57073287 74.41199245 443.52577956 66.16021997 443.48259836 C56.7648549 443.43319258 47.3695245 443.37828685 37.97419298 443.32291877 C18.64949418 443.20915871 -0.67523734 443.10230668 -20 443 C-20.64152278 440.01279427 -21.27968838 437.02493414 -21.91601562 434.03662109 C-22.09553772 433.20235092 -22.27505981 432.36808075 -22.46002197 431.50852966 C-23.89660748 424.74265547 -25.0468587 417.96750944 -25.92675781 411.10498047 C-26.02041626 410.37712341 -26.11407471 409.64926636 -26.21057129 408.89935303 C-26.30608276 408.14881653 -26.40159424 407.39828003 -26.5 406.625 C-26.65341858 405.44142914 -26.65341858 405.44142914 -26.80993652 404.23394775 C-36.45218116 329.40383693 -36.45218116 329.40383693 -33 304 C-33.66 304 -34.32 304 -35 304 C-35.09796875 304.92554688 -35.1959375 305.85109375 -35.296875 306.8046875 C-36.44746856 317.25569088 -37.97621691 327.62390657 -39.67871094 337.99951172 C-41.68581564 347.31242414 -41.68581564 347.31242414 -39.7578125 356.22265625 C-39.21898437 356.82980469 -38.68015625 357.43695313 -38.125 358.0625 C-32.23096341 364.79650798 -32.34063842 372.69292335 -32.77441406 381.20703125 C-33.67562841 392.36492313 -35.73184488 403.45691324 -37.5 414.5 C-38.985 423.905 -40.47 433.31 -42 443 C-62.13 443 -82.26 443 -103 443 C-103 437.70243563 -102.8997631 433.31438066 -102.14550781 428.19189453 C-101.95821106 426.90340607 -101.77091431 425.6149176 -101.57794189 424.28738403 C-101.37015863 422.9024534 -101.1618738 421.51759793 -100.953125 420.1328125 C-100.73834569 418.68849008 -100.52372866 417.24414352 -100.30926514 415.79977417 C-99.859485 412.78171886 -99.40484181 409.76444123 -98.94726562 406.74755859 C-98.36569251 402.90775506 -97.80074148 399.06570968 -97.24003983 395.22281075 C-96.80227574 392.24100352 -96.3533101 389.26095888 -95.90132904 386.2812767 C-95.68852457 384.86668178 -95.4796052 383.45149606 -95.27487946 382.03570938 C-93.58385665 370.39237478 -91.55836912 358.84507654 -82 351 C-80.26473387 350.29587225 -78.51358478 349.62985171 -76.75 349 C-73.32202476 347.39993301 -72.24262689 346.61470907 -70.8359375 343.05078125 C-70.17940157 339.59855663 -69.69716794 336.19845818 -69.31835938 332.70800781 C-68.80778118 328.36496081 -68.10659542 324.05282107 -67.42919922 319.7331543 C-67.06289077 317.38958709 -66.70498972 315.04468865 -66.35595703 312.69848633 C-66.11401611 311.07463013 -66.11401611 311.07463013 -65.8671875 309.41796875 C-65.72394043 308.44625732 -65.58069336 307.4745459 -65.43310547 306.47338867 C-65 304 -65 304 -64 301 C-64.99 300.67 -65.98 300.34 -67 300 C-70.10913742 296.05378712 -71.10679802 291.95202989 -71 287 C-70.08677363 282.56103088 -68.72036338 278.30410918 -67.3125 274 C-66.95994141 272.86304688 -66.60738281 271.72609375 -66.24414062 270.5546875 C-62.70431579 259.3980915 -58.82885846 249.68571677 -48.36328125 243.421875 C-43.6122941 241.00823482 -39.3411304 238.84976961 -33.93432617 238.9375 C-33.11884811 238.946604 -32.30337006 238.95570801 -31.46318054 238.96508789 C-30.58201065 238.97660889 -29.70084076 238.98812988 -28.79296875 239 C-26.90690095 239.00115998 -25.0208302 238.99977175 -23.13476562 238.99609375 C-20.17629947 238.99170687 -17.22099017 238.99941289 -14.26293945 239.05126953 C-0.24365607 239.2759944 7.94409125 237.59661261 19 229 C21.64712865 227.50700081 24.25270023 226.37452771 27.0625 225.1875 C27.71734375 224.90962646 28.3721875 224.63175293 29.046875 224.34545898 C35.2280385 221.78168094 41.54909114 219.77841837 48 218 C48.02578125 217.10796875 48.0515625 216.2159375 48.078125 215.296875 C48.13484375 214.12640625 48.1915625 212.9559375 48.25 211.75 C48.29640625 210.58984375 48.3428125 209.4296875 48.390625 208.234375 C49 205 49 205 50.609375 202.578125 C53 201 53 201 60 201 C59.67 196.05 59.34 191.1 59 186 C57.45892578 185.56300781 57.45892578 185.56300781 55.88671875 185.1171875 C36.35784721 179.41525818 19.75900052 169.21508545 9.6640625 150.8828125 C4 140.07536666 4 140.07536666 4 135 C3.04738281 135.03480469 2.09476562 135.06960937 1.11328125 135.10546875 C-0.14097656 135.13253906 -1.39523438 135.15960938 -2.6875 135.1875 C-3.92886719 135.22230469 -5.17023438 135.25710937 -6.44921875 135.29296875 C-10.2457708 134.97972188 -12.01467371 134.30757653 -15 132 C-17.08414842 128.87377738 -17.24898619 128.20071865 -17.24050903 124.6530304 C-17.24325836 123.76542023 -17.24600769 122.87781006 -17.24884033 121.96330261 C-17.2380545 120.50674004 -17.2380545 120.50674004 -17.22705078 119.02075195 C-17.22734283 117.99618896 -17.22763489 116.97162598 -17.22793579 115.91601562 C-17.22654044 112.52335189 -17.2109694 109.13090671 -17.1953125 105.73828125 C-17.19158311 103.38844421 -17.18873579 101.03860562 -17.18673706 98.68876648 C-17.17909483 92.49913248 -17.15944121 86.30959209 -17.1373291 80.11999512 C-17.11688341 73.80592109 -17.10773807 67.49183195 -17.09765625 61.17773438 C-17.07619593 48.78511508 -17.04205282 36.39256532 -17 24 C-17.77859375 23.72285156 -18.5571875 23.44570313 -19.359375 23.16015625 C-23.115084 21.51008883 -24.14977001 19.63438034 -26 16 C-27.1658369 11.56664742 -27.3694561 8.13010102 -25.9375 3.75 C-23.26983476 -0.03636357 -20.39962236 -2.88017623 -16.125 -4.875 C-9.60455776 -5.25855543 -5.0106031 -4.31144918 0 0 Z " fill="#B2D3FE" transform="translate(118,36)"/>
<path d="M0 0 C2.20377793 -0.00486224 4.40755144 -0.01230709 6.61131287 -0.02212524 C12.56539744 -0.04085341 18.51881941 -0.02217433 24.47285199 0.00453901 C30.70943577 0.02723993 36.94598868 0.01894811 43.18260193 0.01504517 C53.6439749 0.01328266 64.10510422 0.03523632 74.56640625 0.07226562 C85.32853021 0.11034953 96.09035254 0.12441709 106.85253906 0.11328125 C119.84063553 0.09988187 132.82858025 0.10643718 145.81666374 0.1314888 C150.77397062 0.14078861 155.73119574 0.14252527 160.68850899 0.13831711 C166.51552396 0.13455982 172.34215052 0.15069268 178.16907692 0.1824379 C180.31089928 0.1909459 182.45276098 0.19260976 184.59459305 0.1870575 C187.50978714 0.1806448 190.42380898 0.19869471 193.33888245 0.22323608 C194.1935309 0.21567744 195.04817936 0.20811879 195.92872626 0.20033109 C201.62079466 0.28557755 201.62079466 0.28557755 204.14054775 2.58971596 C205.50892814 5.59172733 205.66609674 7.4848649 205.12280273 10.74462891 C202.87280273 13.11962891 202.87280273 13.11962891 200.12280273 14.74462891 C198.80280273 14.74462891 197.48280273 14.74462891 196.12280273 14.74462891 C196.12280273 25.30462891 196.12280273 35.86462891 196.12280273 46.74462891 C198.10280273 47.07462891 200.08280273 47.40462891 202.12280273 47.74462891 C203.99780273 48.86962891 203.99780273 48.86962891 205.12280273 50.74462891 C205.77324521 56.81542537 205.77324521 56.81542537 203.81030273 59.61962891 C200.7838872 61.63723926 197.98817873 61.90349749 194.45483398 62.06103516 C193.5621582 62.10292969 192.66948242 62.14482422 191.74975586 62.18798828 C190.82098633 62.22730469 189.8922168 62.26662109 188.93530273 62.30712891 C187.99493164 62.3503125 187.05456055 62.39349609 186.08569336 62.43798828 C183.76487419 62.54401555 181.44394948 62.64607919 179.12280273 62.74462891 C179.66187256 63.13424805 180.20094238 63.52386719 180.75634766 63.92529297 C189.23063069 70.14519635 194.09861947 76.21887591 196.12280273 86.74462891 C197.19808371 94.63002274 194.97589396 102.51160492 190.43530273 108.99462891 C186.8065087 113.4783268 182.29026816 117.16089619 177.12280273 119.74462891 C178.69481445 119.81810547 178.69481445 119.81810547 180.29858398 119.89306641 C181.67751627 119.96811034 183.05642124 120.04365747 184.43530273 120.11962891 C185.1255957 120.15056641 185.81588867 120.18150391 186.52709961 120.21337891 C190.19271062 120.4258781 192.00181065 120.66396752 195.12280273 122.74462891 C196.12280273 126.05712891 196.12280273 126.05712891 196.12280273 129.74462891 C193.99780273 132.68212891 193.99780273 132.68212891 191.12280273 134.74462891 C189.47280273 134.74462891 187.82280273 134.74462891 186.12280273 134.74462891 C186.12280273 145.30462891 186.12280273 155.86462891 186.12280273 166.74462891 C188.43280273 167.07462891 190.74280273 167.40462891 193.12280273 167.74462891 C195.12280273 169.36962891 195.12280273 169.36962891 196.12280273 171.74462891 C196.12280273 175.30712891 196.12280273 175.30712891 195.12280273 178.74462891 C190.81388777 182.36715527 186.65571027 182.16884308 181.30596924 182.12557983 C180.41783279 182.13025981 179.52969635 182.13493978 178.61464667 182.13976157 C175.63837235 182.1517282 172.66255705 182.14224759 169.6862793 182.1328125 C167.55238577 182.13687757 165.41849436 182.14221908 163.28460693 182.14874268 C157.48691058 182.162433 151.68937419 182.1571096 145.891675 182.14760542 C139.82334777 182.14001382 133.7550343 182.14705341 127.68670654 182.15176392 C117.49122661 182.15722458 107.29581184 182.15002341 97.1003418 182.13574219 C85.32097523 182.11943262 73.54176458 182.12469068 61.76240182 182.1412214 C51.64673157 182.15484828 41.5311082 182.15674951 31.41543174 182.1489054 C25.37501456 182.14423326 19.33467057 182.14359111 13.29425812 182.15351486 C7.61103802 182.16219904 1.92801817 182.15613589 -3.75518036 182.13883209 C-5.83805001 182.13487428 -7.92093658 182.13598918 -10.00379944 182.14262009 C-12.85356813 182.15085394 -15.7027007 182.14049151 -18.5524292 182.12557983 C-19.37102976 182.132272 -20.18963031 182.13896416 -21.03303695 182.14585912 C-31.48596353 182.04023517 -39.16385799 178.25115047 -46.60375977 171.08056641 C-53.51612599 163.62338314 -54.20999123 156.81416372 -54.08032227 146.81884766 C-53.87719727 143.74462891 -53.87719727 143.74462891 -52.87719727 140.74462891 C-54.72096199 140.73916046 -54.72096199 140.73916046 -56.60197449 140.73358154 C-68.18218199 140.69665063 -79.7621231 140.63889861 -91.3421278 140.56072617 C-97.29564204 140.52120626 -103.24900737 140.48903981 -109.20263672 140.47363281 C-114.94755236 140.45849615 -120.69205874 140.42410334 -126.43679237 140.37631989 C-128.62920895 140.36147529 -130.82168395 140.35358613 -133.01415062 140.35274506 C-136.08377159 140.35038297 -139.15225453 140.32336355 -142.22167969 140.29052734 C-143.58329979 140.29807289 -143.58329979 140.29807289 -144.97242737 140.30577087 C-149.03021904 140.23855216 -151.31372926 140.08214912 -154.85566711 137.96051025 C-158.30653212 134.17787689 -159.12793724 131.23807348 -159.68334961 126.1862793 C-159.81055893 125.06350082 -159.93776825 123.94072235 -160.0688324 122.78392029 C-160.19895218 121.56568069 -160.32907196 120.3474411 -160.46313477 119.09228516 C-160.60505753 117.82050919 -160.74698029 116.54873322 -160.89320374 115.23841858 C-161.27619217 111.80459689 -161.649742 108.36981064 -162.02125168 104.93473053 C-162.40579161 101.39213077 -162.79830939 97.85041519 -163.18994141 94.30859375 C-163.80903189 88.70038216 -164.42293132 83.09162612 -165.03295898 77.48242188 C-165.65160821 71.79527144 -166.28000524 66.10928449 -166.91772461 60.42424011 C-167.30126297 57.00480739 -167.68115711 53.58497812 -168.05987549 50.16500854 C-168.22795498 48.65098469 -168.39716029 47.13708534 -168.56756592 45.62332153 C-170.69697805 26.64306861 -170.69697805 26.64306861 -168.68969727 21.99462891 C-163.89792601 16.04622321 -163.89792601 16.04622321 -159.5099678 15.39131927 C-156.43717715 15.26772624 -153.38819012 15.27659786 -150.31323242 15.32568359 C-149.1435643 15.32819626 -147.97389618 15.33070892 -146.76878357 15.33329773 C-144.2304157 15.34070773 -141.69206179 15.35697316 -139.15379715 15.38103485 C-135.13542671 15.41677817 -131.11793357 15.42529926 -127.09945679 15.42388916 C-115.67518569 15.42515817 -104.25135397 15.4728964 -92.82739258 15.55566406 C-86.51327635 15.60110322 -80.19972283 15.6176939 -73.88545263 15.60368848 C-70.54704447 15.59773029 -67.21154336 15.61197404 -63.87318802 15.65340424 C-60.14784638 15.69894195 -56.42547558 15.69543178 -52.69995117 15.68115234 C-51.60153397 15.70684799 -50.50311676 15.73254364 -49.37141418 15.75901794 C-43.74021059 15.78265126 -43.74021059 15.78265126 -39.01456833 13.11182404 C-37.9066261 11.71472787 -36.81276711 10.30637396 -35.73156452 8.88848305 C-26.67449046 -1.58249872 -12.5411352 -0.09713653 0 0 Z " fill="#42516D" transform="translate(286.877197265625,299.25537109375)"/>
<path d="M0 0 C3.09818479 4.54400436 3.7810678 8.65022057 3 14 C1.64116814 17.71890824 0.67690306 19.52346166 -2.57206726 21.81072998 C-5.21509544 23.77779206 -5.21509544 23.77779206 -5.63923645 26.68292236 C-5.64589828 27.70440369 -5.65256012 28.72588501 -5.65942383 29.77832031 C-5.67906693 30.9392218 -5.69871002 32.10012329 -5.71894836 33.29620361 C-5.71501572 34.54423767 -5.71108307 35.79227173 -5.70703125 37.078125 C-5.72215256 38.35983582 -5.73727386 39.64154663 -5.75285339 40.96209717 C-5.79268574 44.36192634 -5.80289247 47.7612199 -5.80688477 51.16125488 C-5.81621987 54.63371002 -5.85363551 58.1058509 -5.88867188 61.578125 C-5.95322915 68.38541541 -5.98388777 75.19242427 -6 82 C-1.71 82 2.58 82 7 82 C7.33 80.02 7.66 78.04 8 76 C9.09879692 73.14965884 10.55301629 70.50113585 12 67.8125 C12.40154297 67.06291016 12.80308594 66.31332031 13.21679688 65.54101562 C16.7922366 59.05390736 20.9689011 53.44521737 26 48 C26.68449219 47.22398438 27.36898437 46.44796875 28.07421875 45.6484375 C36.7060862 36.36239895 48.15708679 29.41270191 60 25 C61.02351563 24.608125 62.04703125 24.21625 63.1015625 23.8125 C83.12425554 17.30399481 105.37694381 19.62140794 124.125 28.625 C145.00337736 39.3084244 161.53198129 57.63347159 169 80 C169 80.66 169 81.32 169 82 C173.29 82 177.58 82 182 82 C182.00487218 74.52364289 181.98440974 67.04837982 181.9197216 59.57227802 C181.89068635 56.10049381 181.87262303 52.62938379 181.87988281 49.1574707 C181.88774949 45.16292373 181.84744926 41.17010943 181.8046875 37.17578125 C181.8183284 35.31147209 181.8183284 35.31147209 181.83224487 33.40950012 C181.93867331 27.44141748 181.93867331 27.44141748 179.65855408 22.14648438 C177.8828174 20.60856378 177.8828174 20.60856378 175 19 C172.28443778 14.91491793 172.47984257 10.74746862 173 6 C174.7624733 0.81049529 177.13396413 -1.52107607 182 -4 C186.36524934 -5.29537887 189.36450018 -5.19064995 193.75 -3.875 C198.49157243 -1.13947744 200.77944583 1.68694022 202.375 6.875 C203.25199087 11.07033472 202.72456199 14.02600933 201 18 C198.7940375 20.53685688 197.01023556 22.49488222 194 24 C193.99635437 25.30434494 193.99270874 26.60868988 193.98895264 27.95256042 C193.95202655 40.23913412 193.89427978 52.52545662 193.81609726 64.8118391 C193.77657233 71.12855768 193.74440831 77.44513579 193.72900391 83.76196289 C193.7138706 89.8569955 193.67948365 95.95164209 193.63169098 102.04650307 C193.61684293 104.37289387 193.60895703 106.69933978 193.60811615 109.02577782 C193.60575513 112.28217195 193.57874371 115.53749178 193.54589844 118.79370117 C193.55344398 120.23947792 193.55344398 120.23947792 193.56114197 121.71446228 C193.49482512 125.95845262 193.37554907 128.37455347 191.15338135 132.07539368 C187.30503239 135.51489441 183.77298687 135.10800905 178.8125 135.0625 C177.54019531 135.05347656 176.26789063 135.04445312 174.95703125 135.03515625 C173.49330078 135.01775391 173.49330078 135.01775391 172 135 C171.88914062 135.87011719 171.77828125 136.74023438 171.6640625 137.63671875 C169.81809813 146.98598537 164.01976809 154.8394996 158 162 C157.38125 162.81855469 156.7625 163.63710937 156.125 164.48046875 C147.69687264 174.47337711 133.58737108 182.00162737 121 185 C119.35 185 117.7 185 116 185 C116 190.28 116 195.56 116 201 C118.31 201 120.62 201 123 201 C125.421875 202.578125 125.421875 202.578125 127 205 C127.390625 208.234375 127.390625 208.234375 127.25 211.75 C127.21390625 212.92046875 127.1778125 214.0909375 127.140625 215.296875 C127.09421875 216.18890625 127.0478125 217.0809375 127 218 C125.41616512 217.88152416 123.83295712 217.75467728 122.25 217.625 C121.36828125 217.55539063 120.4865625 217.48578125 119.578125 217.4140625 C117.54364806 217.17863176 115.51072778 216.90721687 113.49853516 216.52563477 C104.94727631 214.90769196 96.54764976 214.6479412 87.875 214.6875 C86.78948349 214.6877417 86.78948349 214.6877417 85.68203735 214.68798828 C75.67050355 214.70348494 65.9817596 215.22751791 56.16796875 217.34375 C53 218 53 218 49 218 C48.89167831 215.91781638 48.81426459 213.83400871 48.75 211.75 C48.70359375 210.58984375 48.6571875 209.4296875 48.609375 208.234375 C49 205 49 205 50.578125 202.578125 C53 201 53 201 60 201 C59.505 193.575 59.505 193.575 59 186 C57.97261719 185.70867187 56.94523437 185.41734375 55.88671875 185.1171875 C36.35784721 179.41525818 19.75900052 169.21508545 9.6640625 150.8828125 C4 140.07536666 4 140.07536666 4 135 C3.04738281 135.03480469 2.09476563 135.06960937 1.11328125 135.10546875 C-0.14097656 135.13253906 -1.39523438 135.15960938 -2.6875 135.1875 C-3.92886719 135.22230469 -5.17023438 135.25710937 -6.44921875 135.29296875 C-10.2457708 134.97972188 -12.01467371 134.30757653 -15 132 C-17.08414842 128.87377738 -17.24898619 128.20071865 -17.24050903 124.6530304 C-17.24325836 123.76542023 -17.24600769 122.87781006 -17.24884033 121.96330261 C-17.24164978 120.99226089 -17.23445923 120.02121918 -17.22705078 119.02075195 C-17.22734283 117.99618896 -17.22763489 116.97162598 -17.22793579 115.91601562 C-17.22654044 112.52335189 -17.2109694 109.13090671 -17.1953125 105.73828125 C-17.19158311 103.38844421 -17.18873579 101.03860562 -17.18673706 98.68876648 C-17.17909483 92.49913248 -17.15944121 86.30959209 -17.1373291 80.11999512 C-17.11688341 73.80592109 -17.10773807 67.49183195 -17.09765625 61.17773438 C-17.07619593 48.78511508 -17.04205282 36.39256532 -17 24 C-17.77859375 23.72285156 -18.5571875 23.44570313 -19.359375 23.16015625 C-23.115084 21.51008883 -24.14977001 19.63438034 -26 16 C-27.1658369 11.56664742 -27.3694561 8.13010102 -25.9375 3.75 C-23.26983476 -0.03636357 -20.39962236 -2.88017623 -16.125 -4.875 C-9.60455776 -5.25855543 -5.0106031 -4.31144918 0 0 Z " fill="#B2D3FE" transform="translate(118,36)"/>
<path d="M0 0 C12.808116 10.50780781 22.47537717 22.6226949 28.375 38.1875 C28.61355713 38.81591797 28.85211426 39.44433594 29.09790039 40.09179688 C36.75360762 61.49568237 34.56161767 85.68494353 25.39453125 106.20703125 C15.29403457 126.43631731 -2.26832103 142.21320457 -23.5390625 149.8984375 C-42.98011392 156.08622136 -65.23706563 156.82878921 -83.8125 147.6875 C-93.65710778 143.08993612 -104.39288253 145.50921975 -114.81396484 146.71582031 C-119.87703661 147.16742304 -124.92206313 147.11288105 -130 147 C-129.88293701 145.96182129 -129.76587402 144.92364258 -129.64526367 143.85400391 C-129.21445261 139.9616446 -128.82341018 136.06609566 -128.44360352 132.16845703 C-128.27455923 130.48961688 -128.09507897 128.81179067 -127.90454102 127.13525391 C-126.75536179 116.95334407 -126.16685354 109.88241634 -132 101 C-140.87054511 77.68466996 -139.70843787 53.48377021 -129.83251953 30.78955078 C-125.73301785 21.97742547 -119.65944151 14.97141535 -113 8 C-112.45988281 7.38511719 -111.91976563 6.77023438 -111.36328125 6.13671875 C-83.44544168 -24.45335735 -31.43340251 -24.14897637 0 0 Z " fill="#F2F5FE" transform="translate(464,74)"/>
<path d="M0 0 C5.94 0 11.88 0 18 0 C22 9.75 22 9.75 22 12 C25.83676268 12.28073873 27.98854597 12.0050237 31.5625 10.4375 C35.32741209 8.86308222 36.24179952 8.76427194 40 10 C42.4921875 11.85546875 42.4921875 11.85546875 44.875 14.1875 C45.67679687 14.94417969 46.47859375 15.70085937 47.3046875 16.48046875 C49 19 49 19 48.828125 22.06640625 C47.80675644 25.68455618 46.8893506 28.72512562 45 32 C41.375 33.3125 41.375 33.3125 38 34 C36.61874982 36.76250036 36.80920694 38.94731099 37 42 C39.60351781 44.60351781 41.40653125 44.24242139 44.95277798 44.26568735 C45.79361302 44.26102413 46.63444805 44.25636092 47.50076294 44.2515564 C48.83630637 44.2560116 48.83630637 44.2560116 50.19883049 44.26055682 C53.20048903 44.26823241 56.20195394 44.2616882 59.20361328 44.25537109 C61.34853753 44.25811938 63.49346076 44.26179829 65.63838196 44.26634216 C70.26721698 44.27447141 74.89600365 44.27661826 79.52484512 44.27439499 C86.8447186 44.27156868 94.16449501 44.28588926 101.48434448 44.30337524 C122.3026991 44.35046471 143.12104765 44.37433908 163.93945312 44.38085938 C175.42982596 44.38461014 186.92008953 44.40264377 198.41041553 44.43595374 C205.68566667 44.45617954 212.96063617 44.45853164 220.23590398 44.44767356 C224.76727444 44.44506553 229.29848118 44.45907571 233.82980919 44.47775459 C235.92921921 44.48307533 238.02865942 44.48158185 240.12805748 44.47271919 C242.99820768 44.4615817 245.86725225 44.47504904 248.73733521 44.49447632 C249.56478591 44.48535166 250.39223662 44.476227 251.24476159 44.46682584 C257.5143314 44.54918438 262.91863166 46.08103742 267.56513608 50.48264444 C271.32434296 54.81021659 272.32181678 58.24124747 272.20703125 63.94921875 C271.60697972 69.89312545 268.05263866 73.17970323 263.71875 76.80078125 C259.60976101 79.66773493 255.0889789 79.14694587 250.30064392 79.14476013 C249.40111026 79.14828698 248.5015766 79.15181382 247.57478434 79.15544754 C244.54846762 79.16615655 241.52218235 79.16981929 238.49584961 79.17358398 C236.33119066 79.17988739 234.16653301 79.18665295 232.00187683 79.19384766 C227.33486641 79.20852978 222.66786104 79.22024939 218.00083733 79.22979546 C210.62793995 79.24522013 203.25508584 79.26916751 195.88221741 79.29469299 C174.91491423 79.36597485 153.9475865 79.42576085 132.98022461 79.47680664 C121.40459225 79.5050633 109.82900316 79.54041641 98.25341612 79.58346039 C90.91720458 79.61030705 83.58104201 79.6281662 76.24479091 79.63949764 C71.68971333 79.64859268 67.13469552 79.66593921 62.57965279 79.68567657 C60.45998698 79.69317991 58.34030588 79.6972348 56.22062683 79.69767189 C53.33775543 79.69874682 50.45519166 79.71192565 47.57237244 79.72825623 C46.30016756 79.72433094 46.30016756 79.72433094 45.00226158 79.72032636 C40.52844907 79.57057445 40.52844907 79.57057445 37 82 C36.59952556 84.32275177 36.2602896 86.65739357 36 89 C34.6696875 88.5359375 34.6696875 88.5359375 33.3125 88.0625 C29.44314389 86.82138578 26.06495649 86 22 86 C21.80664062 86.60328125 21.61328125 87.2065625 21.4140625 87.828125 C21.15367187 88.62734375 20.89328125 89.4265625 20.625 90.25 C20.24214844 91.43335938 20.24214844 91.43335938 19.8515625 92.640625 C19 95 19 95 17 99 C11.72 99 6.44 99 1 99 C-3 91 -3 91 -4 88.796875 C-4.88023343 86.80390977 -4.88023343 86.80390977 -7.125 86 C-10.80793942 86 -12.92440703 87.31489057 -16.03515625 89.1875 C-18 90 -18 90 -19.9140625 89.921875 C-22.96138353 88.57511889 -24.93850262 86.57246343 -27.3125 84.25 C-28.21613281 83.38890625 -29.11976563 82.5278125 -30.05078125 81.640625 C-32 79 -32 79 -31.89453125 76.359375 C-31 74 -31 74 -29.375 71 C-27.8098735 68.16850785 -27.8098735 68.16850785 -28.0703125 65.484375 C-28.79553942 62.77998289 -28.79553942 62.77998289 -31.46875 61.453125 C-32.4690625 61.05609375 -33.469375 60.6590625 -34.5 60.25 C-39.9826087 58.0173913 -39.9826087 58.0173913 -41 57 C-41.07319621 54.30345146 -41.09242537 51.63308542 -41.0625 48.9375 C-41.05798828 48.17888672 -41.05347656 47.42027344 -41.04882812 46.63867188 C-41.0370068 44.75908129 -41.01907078 42.87953101 -41 41 C-39.58521865 40.35004703 -38.16808513 39.70521278 -36.75 39.0625 C-35.56664062 38.52302734 -35.56664062 38.52302734 -34.359375 37.97265625 C-32.24176302 37.09966721 -30.23330638 36.48661492 -28 36 C-28.37442658 31.65665173 -28.66350748 28.67298503 -30.625 24.75 C-32 22 -32 22 -31.84375 20.12890625 C-29.98604252 15.44163507 -25.96873525 11.96691858 -22 9 C-18.07389575 8.80369479 -16.00211908 9.58448721 -12.4375 11.0625 C-9.5087509 12.18894196 -7.11110233 12.14470243 -4 12 C-3.8453125 10.9790625 -3.8453125 10.9790625 -3.6875 9.9375 C-3 7 -3 7 0 0 Z " fill="#E5EEFD" transform="translate(197,328)"/>
<path d="M0 0 C1.23093636 0.0001133 1.23093636 0.0001133 2.48674011 0.00022888 C3.36808121 0.00539017 4.2494223 0.01055145 5.1574707 0.01586914 C6.5161602 0.01799156 6.5161602 0.01799156 7.90229797 0.02015686 C10.79598286 0.02575538 13.68959044 0.03830758 16.58325195 0.05102539 C18.54483938 0.05604058 20.50642801 0.06060346 22.46801758 0.06469727 C27.27729217 0.07572432 32.08650895 0.09298792 36.89575195 0.11352539 C35.23379131 3.69445568 33.45735225 5.52714287 30.39575195 8.05102539 C14.1773505 22.42323993 3.63039697 43.43046264 1.89575195 65.11352539 C0.90575195 65.11352539 -0.08424805 65.11352539 -1.10424805 65.11352539 C-1.2022168 66.03907227 -1.30018555 66.96461914 -1.40112305 67.91821289 C-2.5517166 78.36921627 -4.08046495 88.73743196 -5.78295898 99.11303711 C-7.79006369 108.42594953 -7.79006369 108.42594953 -5.86206055 117.33618164 C-5.32323242 117.94333008 -4.7844043 118.55047852 -4.22924805 119.17602539 C1.66478854 125.91003338 1.55511353 133.80644874 1.12133789 142.32055664 C0.22012355 153.47844852 -1.83609293 164.57043864 -3.60424805 175.61352539 C-5.08924805 185.01852539 -6.57424805 194.42352539 -8.10424805 204.11352539 C-28.23424805 204.11352539 -48.36424805 204.11352539 -69.10424805 204.11352539 C-69.10424805 198.81596102 -69.00401115 194.42790605 -68.24975586 189.30541992 C-68.06245911 188.01693146 -67.87516235 186.72844299 -67.68218994 185.40090942 C-67.47440667 184.01597879 -67.26612185 182.63112332 -67.05737305 181.24633789 C-66.84259374 179.80201547 -66.6279767 178.35766891 -66.41351318 176.91329956 C-65.96373305 173.89524425 -65.50908985 170.87796662 -65.05151367 167.86108398 C-64.46994055 164.02128045 -63.90498952 160.17923507 -63.34428787 156.33633614 C-62.90652379 153.35452891 -62.45755814 150.37448427 -62.00557709 147.39480209 C-61.79277261 145.98020717 -61.58385325 144.56502145 -61.3791275 143.14923477 C-59.6881047 131.50590017 -57.66261717 119.95860193 -48.10424805 112.11352539 C-46.36898191 111.40939764 -44.61783283 110.7433771 -42.85424805 110.11352539 C-39.42627281 108.5134584 -38.34687494 107.72823446 -36.94018555 104.16430664 C-36.28364962 100.71208202 -35.80141599 97.31198357 -35.42260742 93.8215332 C-34.91202923 89.4784862 -34.21084346 85.16634646 -33.53344727 80.84667969 C-33.16713882 78.50311248 -32.80923777 76.15821404 -32.46020508 73.81201172 C-32.29891113 72.72944092 -32.13761719 71.64687012 -31.97143555 70.53149414 C-31.82818848 69.55978271 -31.68494141 68.58807129 -31.53735352 67.58691406 C-31.10424805 65.11352539 -31.10424805 65.11352539 -30.10424805 62.11352539 C-31.09424805 61.78352539 -32.08424805 61.45352539 -33.10424805 61.11352539 C-36.21338547 57.16731251 -37.21104606 53.06555528 -37.10424805 48.11352539 C-36.19102167 43.67455627 -34.82461142 39.41763457 -33.41674805 35.11352539 C-33.06418945 33.97657227 -32.71163086 32.83961914 -32.34838867 31.66821289 C-28.80856384 20.51161689 -24.93310651 10.79924216 -14.4675293 4.53540039 C-9.70433253 2.11555736 -5.41558588 -0.01666334 0 0 Z " fill="#6FAEFE" transform="translate(84.104248046875,274.886474609375)"/>
<path d="M0 0 C2.64600746 1.0472619 4.72029296 2.07437799 6.66796875 4.171875 C7.12171875 4.584375 7.57546875 4.996875 8.04296875 5.421875 C10.26408262 5.11328022 10.26408262 5.11328022 13.04296875 4.421875 C18.01805847 3.95598031 21.85948162 3.85204786 26.41796875 6.046875 C30.10361751 9.38150959 32.46998215 12.70291519 34.04296875 17.421875 C35.03296875 16.926875 35.03296875 16.926875 36.04296875 16.421875 C41.24384167 15.90348734 45.65983353 15.75592101 50.41796875 18.046875 C55.41834248 22.57102266 58.83273616 26.21582794 59.29296875 33.234375 C59.20035733 39.5551045 56.04186051 43.73351914 52.04296875 48.421875 C52.53796875 49.22625 53.03296875 50.030625 53.54296875 50.859375 C55.61809018 55.78778839 56.1321225 60.28363537 54.3515625 65.4140625 C52.09935991 69.80538639 49.49499166 72.39822822 45.04296875 74.421875 C41.34950094 74.73263574 37.73898704 74.65863062 34.04296875 74.421875 C33.52734375 75.618125 33.01171875 76.814375 32.48046875 78.046875 C30.22546125 82.58105079 27.23513419 85.61088704 23.04296875 88.421875 C17.7399721 90.18954055 12.79571275 90.1229726 7.60546875 88.046875 C5.04296875 86.421875 5.04296875 86.421875 3.04296875 84.421875 C0.7152 83.81507993 0.7152 83.81507993 -1.89453125 83.421875 C-5.37802622 82.84727789 -6.94298851 82.43123683 -9.95703125 80.421875 C-12.6873231 80.70431898 -14.32416233 81.63881609 -16.70703125 83.046875 C-21.11376736 84.91126335 -23.3118062 84.48799223 -27.95703125 83.421875 C-29.95703125 81.859375 -29.95703125 81.859375 -30.95703125 80.421875 C-31.57578125 80.73125 -32.19453125 81.040625 -32.83203125 81.359375 C-37.63462791 83.76067333 -41.58185426 84.03980873 -46.95703125 83.421875 C-50.49417766 81.35853959 -52.5803176 79.30170438 -53.95703125 75.421875 C-53.95703125 74.431875 -53.95703125 73.441875 -53.95703125 72.421875 C-54.67890625 72.339375 -55.40078125 72.256875 -56.14453125 72.171875 C-59.54415434 71.26530884 -61.3813344 69.78293045 -63.95703125 67.421875 C-65.79352161 63.74889428 -65.34365652 59.44024254 -64.95703125 55.421875 C-63.39453125 52.484375 -63.39453125 52.484375 -61.95703125 50.421875 C-62.45203125 48.936875 -62.45203125 48.936875 -62.95703125 47.421875 C-63.44217607 41.91031167 -63.72440441 37.04516438 -61.33203125 31.984375 C-53.88046875 23.94453125 -53.88046875 23.94453125 -47.95703125 23.421875 C-48.01503906 22.865 -48.07304687 22.308125 -48.1328125 21.734375 C-48.51392675 15.28809969 -47.0744606 11.38074086 -42.95703125 6.421875 C-37.47082812 1.32754352 -33.10939247 1.22960954 -25.89453125 1.23828125 C-22.95703125 1.421875 -22.95703125 1.421875 -19.64453125 2.671875 C-16.74374741 3.82068021 -16.74374741 3.82068021 -13.58203125 1.546875 C-12.99679687 1.16660156 -12.4115625 0.78632812 -11.80859375 0.39453125 C-7.99508866 -1.60876573 -4.03453382 -1.19183833 0 0 Z " fill="#FDB59D" transform="translate(417.95703125,97.578125)"/>
<path d="M0 0 C0.88001004 -0.00497769 1.76002008 -0.00995538 2.66669708 -0.01508391 C5.59740406 -0.0256098 8.52668864 -0.00056233 11.45729065 0.02450562 C13.56519703 0.02427879 15.67310414 0.0218625 17.78100586 0.01742554 C23.49136418 0.01172813 29.20121033 0.03697898 34.91147113 0.06810045 C40.88473892 0.09566628 46.85800786 0.09564127 52.83132935 0.09881592 C62.85420079 0.10801242 72.876881 0.13552798 82.89967346 0.1758728 C97.05442179 0.23279638 111.20907428 0.25503562 125.36391914 0.2711575 C135.15445368 0.28359411 144.94497355 0.30427926 154.73549008 0.32653761 C157.11354562 0.33190531 159.4916017 0.33704133 161.86965823 0.34194994 C168.64105644 0.35621627 175.41239927 0.37559055 182.18375587 0.40342712 C184.23934742 0.41117373 186.29494611 0.41722462 188.35054779 0.42150497 C191.14365309 0.42768446 193.93666136 0.44001791 196.72973633 0.45410156 C197.55402946 0.45459932 198.3783226 0.45509708 199.22759432 0.45560992 C204.80615956 0.49373586 204.80615956 0.49373586 205.92042542 1.60800171 C206.02120662 3.97198639 206.06015757 6.30611482 206.05323792 8.67050171 C206.05419464 9.37698853 206.05515137 10.08347534 206.05613708 10.81137085 C206.05681874 12.30770964 206.05496546 13.80405138 206.05079651 15.30038452 C206.04544799 17.59830328 206.05074192 19.89602657 206.05714417 22.19393921 C206.05648338 23.64446048 206.05520221 25.09498162 206.05323792 26.54550171 C206.05526215 27.23716431 206.05728638 27.9288269 206.05937195 28.64144897 C206.03537765 33.49304947 206.03537765 33.49304947 204.92042542 34.60800171 C202.17991484 34.71475612 199.46430121 34.75578534 196.7230072 34.75517273 C195.85321153 34.75884942 194.98341586 34.76252611 194.08726275 34.76631421 C191.14932026 34.77739767 188.21141308 34.78120278 185.27345276 34.78500366 C183.17631415 34.7912649 181.07917666 34.79791139 178.98204041 34.80491638 C173.26693971 34.82236027 167.55184741 34.8328878 161.83672667 34.84112191 C158.26820574 34.84626589 154.69968744 34.85234195 151.13116837 34.85863304 C139.97243156 34.8776963 128.81370142 34.89192387 117.65495145 34.90024501 C104.76291834 34.91001645 91.87105696 34.93632891 78.97908437 34.9767459 C69.02319706 35.00688938 59.06735902 35.0217123 49.11142695 35.02502602 C43.16150662 35.02737894 37.21176952 35.0363706 31.26189804 35.0614872 C25.66244078 35.08474122 20.06328771 35.08901176 14.46379471 35.07872581 C12.40910074 35.07822966 10.35439195 35.08457343 8.29974365 35.09828186 C5.49271238 35.11596108 2.68677738 35.10891396 -0.12025452 35.0957489 C-0.93184544 35.10671815 -1.74343637 35.11768739 -2.57962096 35.12898904 C-8.19760738 35.06545528 -11.44001502 33.80722603 -16.07957458 30.60800171 C-20.88919837 25.41867078 -21.44866605 21.20031264 -21.34910583 14.33065796 C-20.95806612 10.38059007 -19.80846787 8.47333966 -17.07957458 5.60800171 C-11.50250571 1.18372893 -7.03440437 -0.12075536 0 0 Z " fill="#E7EDFD" transform="translate(277.07957458496094,312.3919982910156)"/>
<path d="M0 0 C0.8772979 -0.00170885 1.75459581 -0.0034177 2.6584785 -0.00517833 C5.60351733 -0.00847738 8.54832926 0.00253735 11.49334717 0.01345825 C13.60228469 0.01402228 15.71122261 0.01370598 17.82015991 0.01257324 C23.5511795 0.01199839 29.28211571 0.02377424 35.01311588 0.03772116 C41.00023541 0.05020635 46.98735676 0.05139727 52.9744873 0.05377197 C64.3145653 0.05999325 75.65460482 0.07641283 86.99466586 0.09647095 C99.90381841 0.11880981 112.81297278 0.12981832 125.72213984 0.13986182 C152.27968674 0.16077849 178.83719677 0.19636895 205.39471436 0.24050903 C205.39471436 11.46050903 205.39471436 22.68050903 205.39471436 34.24050903 C177.50040578 34.35625588 149.60615505 34.44548312 121.71165466 34.49956989 C108.75973332 34.52535088 95.80796394 34.56049974 82.85614014 34.6177063 C71.56726162 34.66754407 60.27849315 34.6998008 48.98950768 34.71095151 C43.01209261 34.71746953 37.03499238 34.73278721 31.05767822 34.76915932 C25.43029705 34.80312429 19.8033601 34.81356076 14.17588615 34.80604744 C12.11192345 34.80742174 10.04794572 34.81735096 7.98407173 34.83653641 C5.16183237 34.86148221 2.34126139 34.85540858 -0.48101807 34.84178162 C-1.29426922 34.85634582 -2.10752037 34.87091003 -2.9454155 34.88591558 C-8.85684543 34.8089736 -13.10241556 33.12866947 -17.60528564 29.24050903 C-21.36900238 24.08126882 -22.31645075 19.53939998 -21.60528564 13.24050903 C-19.52149803 7.33644412 -16.01040155 4.55837982 -10.95170975 1.11491585 C-7.36482426 -0.22175518 -3.77680923 -0.02679925 0 0 Z " fill="#E7EEFC" transform="translate(267.60528564453125,432.7594909667969)"/>
<path d="M0 0 C2.18377408 -0.00214787 4.36754704 -0.00602854 6.55131531 -0.01150513 C12.45994055 -0.02116867 18.36826195 -0.00593533 24.27685046 0.01440096 C30.46272594 0.03200446 36.6485925 0.02844633 42.83448792 0.02767944 C53.21360341 0.02955 63.59260165 0.04688618 73.97167969 0.07421875 C85.98018207 0.1057249 97.98850717 0.11621282 109.99704784 0.11474764 C121.54931508 0.11352842 133.10154054 0.12372337 144.65379524 0.14033127 C149.57200509 0.14740113 154.49020016 0.15105834 159.40841484 0.15211868 C165.19097035 0.15412299 170.97341772 0.1662951 176.75593758 0.18645096 C178.88164229 0.19230693 181.00735944 0.19475049 183.1330719 0.19359589 C186.02616284 0.19261884 188.918948 0.20388225 191.81199646 0.21841431 C193.08434266 0.2137685 193.08434266 0.2137685 194.38239282 0.20902884 C198.28233582 0.24155977 200.21380072 0.27274215 203.53344727 2.48583984 C204.53344727 5.79833984 204.53344727 5.79833984 204.53344727 9.48583984 C202.57727605 12.19470271 200.99946475 14.14007111 197.63906038 14.93264198 C195.30195246 15.10303534 193.01480633 15.10407741 190.67192078 15.0534668 C189.77899521 15.05421109 188.88606965 15.05495539 187.96608573 15.05572224 C184.97320956 15.052249 181.98186724 15.01304127 178.98925781 14.97412109 C176.8439012 14.96452532 174.69853337 14.95720627 172.55316162 14.95199585 C167.93236784 14.93618501 163.31203032 14.90483459 158.69141197 14.86166382 C151.38397501 14.79408908 144.07669022 14.76458865 136.76899719 14.7409668 C119.93380955 14.68071671 103.09901719 14.57051302 86.26409912 14.45982361 C70.8431153 14.35891964 55.42226525 14.26855919 40.00102073 14.21874905 C32.73807415 14.1938446 25.47582562 14.14455781 18.21315992 14.07659912 C13.69170518 14.03926983 9.17034614 14.02271653 4.64875793 14.01176834 C2.55411858 14.00241714 0.45949701 13.98442953 -1.63498497 13.95710373 C-4.49845957 13.92092656 -7.36041015 13.91583834 -10.22407532 13.91821289 C-11.04947966 13.90023808 -11.87488401 13.88226328 -12.72530061 13.86374378 C-18.78016986 13.91738189 -22.73482848 15.73009051 -27.46655273 19.48583984 C-31.00492881 23.36663941 -31.83671329 27.04237154 -31.73999023 32.29443359 C-31.25928028 36.14698052 -29.96361837 39.50688435 -27.46655273 42.48583984 C-21.92491638 46.30698879 -17.99156756 47.05659465 -11.34432983 46.94667053 C-10.44757872 46.94797153 -9.55082761 46.94927254 -8.62690222 46.95061296 C-5.63346333 46.95017792 -2.64099454 46.92119554 0.35229492 46.89233398 C2.50281864 46.88629214 4.6533481 46.8820604 6.80387878 46.87950134 C11.42892746 46.87025535 16.05368781 46.84849175 20.67863846 46.81706429 C27.98963439 46.76773055 35.30052896 46.74787146 42.61166382 46.73228455 C56.80744585 46.69800996 71.00301943 46.63419324 85.19867706 46.56687164 C103.27556197 46.48227148 121.35244574 46.40946644 139.42947996 46.3662557 C146.69976016 46.34786676 153.96976011 46.31410204 161.23991799 46.2684232 C165.75794928 46.24289106 170.27595655 46.22965373 174.7940464 46.21969032 C176.89152682 46.21246631 178.98899662 46.20003478 181.08641243 46.18205643 C183.94615578 46.15822086 186.80536274 46.15282162 189.66519165 46.1519928 C190.9143596 46.13479229 190.9143596 46.13479229 192.18876326 46.1172443 C196.75332763 46.13807048 199.89113023 46.41348574 203.53344727 49.48583984 C204.62147261 53.22592697 205.12777291 55.35662113 203.28344727 58.86083984 C199.50939065 62.36532099 194.78779163 61.63130447 189.9571228 61.62628174 C189.07069521 61.62925286 188.18426761 61.63222398 187.27097857 61.63528514 C184.28863445 61.64398473 181.30633042 61.64548147 178.32397461 61.64697266 C176.19037795 61.65160002 174.05678212 61.65662457 171.92318726 61.66201782 C166.11716096 61.67515366 160.31114624 61.68158936 154.5051074 61.68602848 C150.8779316 61.68895794 147.25075896 61.69306256 143.62358475 61.69753265 C132.2758353 61.71121212 120.9280931 61.72087598 109.58033597 61.72473454 C96.4800931 61.72921335 83.37995467 61.74675117 70.27974355 61.77573514 C60.15563251 61.79735687 50.03155083 61.80743913 39.90741694 61.80877566 C33.86024821 61.80982354 27.8131776 61.81572763 21.76603317 61.83359528 C16.07465363 61.85008384 10.38344586 61.85222754 4.69205093 61.84345627 C2.60594981 61.84268626 0.51983942 61.84702383 -1.5662384 61.85691452 C-4.42047125 61.86965069 -7.27409728 61.86374796 -10.12832642 61.85333252 C-11.35827361 61.86541713 -11.35827361 61.86541713 -12.61306822 61.87774587 C-23.07164843 61.78886786 -30.75048194 57.99499405 -38.19311523 50.82177734 C-44.76876455 43.72785025 -46.17561824 36.68130145 -45.93920898 27.09130859 C-44.92368794 19.34481334 -41.34107176 12.87028794 -35.71655273 7.48583984 C-24.56329407 -0.76905494 -13.32837523 -0.07603389 0 0 Z " fill="#FDC300" transform="translate(278.466552734375,419.51416015625)"/>
<path d="M0 0 C2.20377793 -0.00486224 4.40755144 -0.01230709 6.61131287 -0.02212524 C12.56539744 -0.04085341 18.51881941 -0.02217433 24.47285199 0.00453901 C30.70943577 0.02723993 36.94598868 0.01894811 43.18260193 0.01504517 C53.6439749 0.01328266 64.10510422 0.03523632 74.56640625 0.07226562 C85.32853021 0.11034953 96.09035254 0.12441709 106.85253906 0.11328125 C119.84063553 0.09988187 132.82858025 0.10643718 145.81666374 0.1314888 C150.77397062 0.14078861 155.73119574 0.14252527 160.68850899 0.13831711 C166.51552396 0.13455982 172.34215052 0.15069268 178.16907692 0.1824379 C180.31089928 0.1909459 182.45276098 0.19260976 184.59459305 0.1870575 C187.50978714 0.1806448 190.42380898 0.19869471 193.33888245 0.22323608 C194.1935309 0.21567744 195.04817936 0.20811879 195.92872626 0.20033109 C201.62079466 0.28557755 201.62079466 0.28557755 204.14054775 2.58971596 C205.50892814 5.59172733 205.66609674 7.4848649 205.12280273 10.74462891 C202.33927277 13.78454403 200.14926287 14.99016543 196.10970592 15.22285366 C194.49356262 15.23312591 192.87718748 15.22125131 191.26127625 15.19200134 C190.36835068 15.19189121 189.47542512 15.19178108 188.5554412 15.19166762 C185.56276664 15.18654724 182.57109518 15.15283891 179.57861328 15.11938477 C177.43325491 15.11007106 175.2878879 15.10259367 173.14251709 15.09681702 C168.52179292 15.08077864 163.90136522 15.05240822 159.28076744 15.01472282 C151.9733285 14.95589154 144.66598226 14.92858747 137.35835266 14.90638733 C119.20565384 14.84630637 101.05321531 14.74437279 82.90075684 14.63446045 C68.79732099 14.54953612 54.69402256 14.47605264 40.5903762 14.43686777 C33.32745721 14.41538565 26.06518737 14.37026212 18.80251539 14.30726039 C14.28104862 14.27312134 9.75969529 14.25983278 5.2381134 14.25226402 C3.14348094 14.2445082 1.04885969 14.22813196 -1.0456295 14.20243454 C-3.90912225 14.16850478 -6.77106675 14.1656473 -9.63471985 14.17027283 C-10.4601242 14.15298014 -11.28552854 14.13568745 -12.13594514 14.11787075 C-18.19480459 14.17636108 -22.13727399 15.99723507 -26.87719727 19.74462891 C-29.9384338 22.99719273 -30.10032079 25.86533219 -30.25219727 30.18212891 C-30.11108578 34.74677883 -29.57233104 37.93426736 -26.87719727 41.74462891 C-21.53605185 46.68518841 -17.24635774 46.8850493 -10.23599243 46.83796692 C-9.34265902 46.83599908 -8.44932561 46.83403124 -7.52892148 46.83200377 C-4.52339722 46.82425976 -1.51794877 46.80939558 1.48754883 46.79467773 C3.63748529 46.78785019 5.78742338 46.78151947 7.93736267 46.77565002 C12.57327863 46.76230246 17.20917376 46.7461589 21.8450737 46.72809792 C29.17255209 46.70031312 36.50003015 46.68327192 43.82754517 46.66862488 C46.33440974 46.66348078 48.84127429 46.65832416 51.34813881 46.65315533 C53.23140023 46.64927699 53.23140023 46.64927699 55.15270734 46.6453203 C72.21635816 46.60924218 89.27994382 46.56386257 106.34350586 46.49780273 C117.84771473 46.45335161 129.3518668 46.42306439 140.85615408 46.40894526 C146.94684874 46.40085988 153.03732645 46.38529316 159.12794113 46.35227394 C164.85543035 46.32127951 170.58265838 46.30874506 176.31022835 46.31049156 C178.41415135 46.30778989 180.51807829 46.2981971 182.62193489 46.28126526 C185.49083041 46.25917447 188.35868735 46.26166025 191.22763062 46.27033997 C192.48089128 46.25183974 192.48089128 46.25183974 193.75947034 46.23296577 C197.69200512 46.27044365 199.69588521 46.48958385 203.14750099 48.55161572 C205.12280273 50.74462891 205.12280273 50.74462891 205.62280273 54.30712891 C205.12280273 57.74462891 205.12280273 57.74462891 203.81030273 59.61962891 C199.67467621 62.37671326 195.21363846 61.8826056 190.45277405 61.86729431 C189.55621249 61.86829858 188.65965093 61.86930285 187.73592085 61.87033755 C184.71910839 61.87232981 181.7023545 61.86698533 178.68554688 61.86157227 C176.52726239 61.86125038 174.36897783 61.86128953 172.21069336 61.86166382 C165.1097636 61.86066996 158.00887362 61.84838785 150.90795898 61.83447266 C149.0955362 61.83115271 149.0955362 61.83115271 147.24649882 61.8277657 C135.84887906 61.80663405 124.45127519 61.78148708 113.053689 61.7464819 C98.48009904 61.70195938 83.90678321 61.67732858 69.33312327 61.68023008 C59.08403524 61.68062263 48.83514864 61.65815144 38.58613676 61.61886317 C32.4667058 61.59601424 26.34763733 61.58313783 20.22816658 61.59477043 C14.46512223 61.60523104 8.70284687 61.58727356 2.93993378 61.54796982 C0.83093041 61.53844415 -1.27814779 61.53900546 -3.38714027 61.55069542 C-15.93180628 61.61340717 -26.19113242 61.52069136 -36.08358669 52.79946804 C-42.15656104 46.68847498 -45.03786432 39.28268372 -45.37719727 30.74462891 C-45.0378989 22.20744418 -42.15741468 14.79864849 -36.08251095 8.68996239 C-25.2933836 -0.82725542 -13.58738801 -0.10524021 0 0 Z " fill="#FE4F5A" transform="translate(286.877197265625,299.25537109375)"/>
<path d="M0 0 C0.9043218 -0.0055344 1.80864359 -0.01106879 2.74036908 -0.0167709 C5.77748743 -0.03040853 8.81378841 -0.01539096 11.85089111 -0.00050354 C14.02566884 -0.00428568 16.20044417 -0.00978486 18.37521362 -0.01687622 C24.28865043 -0.03086497 30.20179738 -0.01963544 36.11521816 -0.00316501 C42.3014646 0.01066771 48.48769389 0.00422717 54.6739502 0.0007019 C65.06793903 -0.00200243 75.46181254 0.01149187 85.85577393 0.03465271 C97.86861785 0.06123583 109.88123396 0.06301923 121.8941009 0.05126435 C133.4484814 0.04047797 145.00279209 0.04668223 156.55716705 0.06081963 C161.47404889 0.06657476 166.39087956 0.06650036 171.30776215 0.06175423 C177.10260114 0.05697572 182.89722916 0.06712263 188.69202805 0.08870888 C190.81723952 0.094266 192.94247131 0.09475193 195.06768417 0.08975601 C197.97260173 0.08378454 200.87687837 0.09634453 203.78173828 0.11352539 C204.61949759 0.10751535 205.4572569 0.1015053 206.32040286 0.09531313 C214.91545314 0.18751443 222.48742769 2.93489517 228.74249268 9.06761169 C234.84581476 15.77076887 237.527599 23.13901293 237.35577393 32.26292419 C236.51365759 41.19871423 232.8616439 48.3393165 226.15264893 54.25901794 C219.51186511 59.44634719 214.3842516 60.79861148 206.0665741 60.75517273 C205.15040851 60.75829271 204.23424292 60.76141269 203.29031473 60.76462722 C200.21953978 60.77260634 197.14896247 60.76628387 194.07818604 60.75999451 C191.87706893 60.76270438 189.67595273 60.7662653 187.47483826 60.77061462 C181.49569503 60.77974071 175.51662075 60.77619357 169.5374763 60.76985645 C163.28530232 60.76479826 157.03313429 60.76948734 150.78096008 60.77262878 C139.60929472 60.77650192 128.43765469 60.7702814 117.26599539 60.76011011 C107.13566839 60.75117251 97.00538721 60.75272862 86.87506104 60.76194763 C75.11044181 60.7726489 63.34584492 60.77663579 51.58122069 60.7707231 C45.35374161 60.76760154 39.12629412 60.76719926 32.89881706 60.77379608 C27.04575385 60.77956309 21.1927774 60.77558444 15.33972359 60.76400757 C13.18863698 60.76135765 11.03754309 60.7621317 8.88645935 60.7665329 C5.95624521 60.77197659 3.02631128 60.76516847 0.09611511 60.75517273 C-0.76039534 60.75963417 -1.6169058 60.76409562 -2.49937111 60.76869226 C-6.537606 60.74186797 -9.34231307 60.47531706 -12.85516357 58.50120544 C-13.2257901 50.96513268 -13.2257901 50.96513268 -11.57361585 48.8970437 C-8.6005223 46.48210453 -4.85166167 47.09266766 -1.182724 47.12266541 C-0.2860126 47.11813528 0.6106988 47.11360515 1.53458327 47.10893774 C4.55170476 47.09727229 7.56838645 47.10697754 10.58551025 47.11643982 C12.7436807 47.11233658 14.90184893 47.10687718 17.06001282 47.10015869 C21.71395668 47.08841289 26.36778188 47.08595681 31.02173805 47.09051514 C38.3789694 47.09730863 45.73604386 47.0814842 53.09324646 47.06211853 C68.71460129 47.0242091 84.33594265 47.01145757 99.95733643 47.00120544 C116.8099535 46.99013995 133.66249873 46.97481826 150.51506633 46.93049288 C157.83014507 46.91211405 165.14504543 46.90825259 172.46014178 46.91542816 C177.01105004 46.91694868 181.56186889 46.90617424 186.11275291 46.89204979 C188.22429441 46.88804274 190.33585284 46.88917961 192.4473877 46.89582253 C195.3289596 46.90419196 198.20991145 46.89422723 201.09144592 46.87974548 C201.92793114 46.88663942 202.76441636 46.89353335 203.62624961 46.9006362 C209.216956 46.84586671 213.50343736 45.91046255 217.78936768 42.00120544 C221.74342166 36.92308929 222.81216012 32.89537971 222.14483643 26.50120544 C220.14013954 21.0146666 217.18753126 18.07909518 212.03672218 15.40797329 C208.06563379 14.16281509 204.38795992 14.22320143 200.24966431 14.24291992 C199.35321091 14.23924422 198.45675752 14.23556851 197.53313887 14.23178142 C194.52913513 14.22180074 191.52531646 14.22595234 188.52130127 14.22996521 C186.36782128 14.22557833 184.21434299 14.22027631 182.06086731 14.21412659 C177.42389259 14.20262462 172.78696358 14.19716704 168.14997482 14.19624519 C160.82283102 14.19430645 153.49578202 14.17626528 146.16867065 14.15548706 C127.97229613 14.1062767 109.77589589 14.07538111 91.57946777 14.05418396 C77.43358907 14.03768183 63.2877916 14.01493396 49.14196742 13.97116321 C41.85282687 13.94932931 34.56384043 13.94133429 27.27466941 13.94355595 C22.7479366 13.94189417 18.22130522 13.92787673 13.69460869 13.91034317 C11.5898722 13.90472422 9.48511485 13.90427617 7.38037682 13.90928078 C4.51536411 13.91538089 1.65099753 13.9032657 -1.21395874 13.88647461 C-2.05392729 13.89268642 -2.89389585 13.89889824 -3.75931799 13.90529829 C-9.41741859 13.84453803 -9.41741859 13.84453803 -11.56378114 12.1611008 C-12.85516357 10.50120544 -12.85516357 10.50120544 -13.29266357 7.56370544 C-12.85516357 4.50120544 -12.85516357 4.50120544 -11.38126755 2.34112453 C-7.75131895 -0.30279345 -4.32153745 -0.04902476 0 0 Z " fill="#56D8A3" transform="translate(245.85516357421875,359.49879455566406)"/>
<path d="M0 0 C5.94 0 11.88 0 18 0 C22 9.75 22 9.75 22 12 C25.83676268 12.28073873 27.98854597 12.0050237 31.5625 10.4375 C35.32741209 8.86308222 36.24179952 8.76427194 40 10 C42.4921875 11.85546875 42.4921875 11.85546875 44.875 14.1875 C45.67679687 14.94417969 46.47859375 15.70085937 47.3046875 16.48046875 C49 19 49 19 48.828125 22.06640625 C47.80675644 25.68455618 46.8893506 28.72512562 45 32 C41.375 33.3125 41.375 33.3125 38 34 C36.58558126 36.82883747 36.68099668 38.87376745 37 42 C39.59751209 44.69028038 41.27688594 45.06922148 45 46 C45 56.56 45 67.12 45 78 C42.69 78.99 40.38 79.98 38 81 C36.03177114 82.96822886 36.33751619 86.34808709 36 89 C34.6696875 88.5359375 34.6696875 88.5359375 33.3125 88.0625 C29.44314389 86.82138578 26.06495649 86 22 86 C21.80664062 86.60328125 21.61328125 87.2065625 21.4140625 87.828125 C21.15367187 88.62734375 20.89328125 89.4265625 20.625 90.25 C20.24214844 91.43335938 20.24214844 91.43335938 19.8515625 92.640625 C19 95 19 95 17 99 C11.72 99 6.44 99 1 99 C-3 91 -3 91 -4 88.796875 C-4.88023343 86.80390977 -4.88023343 86.80390977 -7.125 86 C-10.80793942 86 -12.92440703 87.31489057 -16.03515625 89.1875 C-18 90 -18 90 -19.9140625 89.921875 C-22.96138353 88.57511889 -24.93850262 86.57246343 -27.3125 84.25 C-28.21613281 83.38890625 -29.11976563 82.5278125 -30.05078125 81.640625 C-32 79 -32 79 -31.89453125 76.359375 C-31 74 -31 74 -29.375 71 C-27.8098735 68.16850785 -27.8098735 68.16850785 -28.0703125 65.484375 C-28.79553942 62.77998289 -28.79553942 62.77998289 -31.46875 61.453125 C-32.4690625 61.05609375 -33.469375 60.6590625 -34.5 60.25 C-39.9826087 58.0173913 -39.9826087 58.0173913 -41 57 C-41.07319621 54.30345146 -41.09242537 51.63308542 -41.0625 48.9375 C-41.05798828 48.17888672 -41.05347656 47.42027344 -41.04882812 46.63867188 C-41.0370068 44.75908129 -41.01907078 42.87953101 -41 41 C-39.58521865 40.35004703 -38.16808513 39.70521278 -36.75 39.0625 C-35.56664062 38.52302734 -35.56664062 38.52302734 -34.359375 37.97265625 C-32.24176302 37.09966721 -30.23330638 36.48661492 -28 36 C-28.37442658 31.65665173 -28.66350748 28.67298503 -30.625 24.75 C-32 22 -32 22 -31.84375 20.12890625 C-29.98604252 15.44163507 -25.96873525 11.96691858 -22 9 C-18.07389575 8.80369479 -16.00211908 9.58448721 -12.4375 11.0625 C-9.5087509 12.18894196 -7.11110233 12.14470243 -4 12 C-3.8453125 10.9790625 -3.8453125 10.9790625 -3.6875 9.9375 C-3 7 -3 7 0 0 Z " fill="#FCFCFD" transform="translate(197,328)"/>
<path d="M0 0 C0.91765137 -0.00700928 1.83530273 -0.01401855 2.78076172 -0.02124023 C5.81834088 -0.03886004 8.85498921 -0.02717543 11.89257812 -0.01367188 C14.01045917 -0.01636749 16.12833901 -0.02025049 18.24621582 -0.02526855 C22.69160714 -0.03117055 27.13667726 -0.02258475 31.58203125 -0.00390625 C37.25327201 0.01877223 42.9237509 0.00583516 48.59496307 -0.01819611 C52.97389337 -0.03273031 57.35264668 -0.02801139 61.73158264 -0.01768494 C63.82056266 -0.01503286 65.90955921 -0.0182334 67.9985199 -0.02760315 C84.23308749 -0.0843928 98.8494443 1.21567102 111.36914062 12.77539062 C120.37319568 22.25490733 124.86887991 32.40161418 125.38476562 45.43945312 C124.68467473 48.59579511 123.51755667 49.57806851 120.92382812 51.51757812 C117.87251471 52.12096041 114.85794064 52.06390157 111.75585938 52.03515625 C110.36475197 52.04567017 110.36475197 52.04567017 108.94554138 52.05639648 C105.87549989 52.07401718 102.80637927 52.0623314 99.73632812 52.04882812 C97.59602685 52.05152369 95.45572677 52.05540665 93.31542969 52.0604248 C88.82296118 52.06632691 84.33081048 52.05774058 79.83837891 52.0390625 C74.10660679 52.01638286 68.37558845 52.0293218 62.6438446 52.05335236 C58.21859176 52.06788526 53.79351407 52.06316824 49.36825562 52.05284119 C47.25694691 52.05018881 45.14562186 52.05339071 43.03433228 52.0627594 C25.98500313 52.12176214 12.62685341 50.63748604 -0.29882812 38.41601562 C-8.79978104 29.42248413 -13.10973999 19.18504401 -13.53710938 6.84960938 C-12.09666513 -0.43806192 -6.0602939 -0.05676495 0 0 Z " fill="#42516D" transform="translate(150.076171875,117.482421875)"/>
<path d="M0 0 C1.23093636 0.0001133 1.23093636 0.0001133 2.48674011 0.00022888 C3.36808121 0.00539017 4.2494223 0.01055145 5.1574707 0.01586914 C6.5161602 0.01799156 6.5161602 0.01799156 7.90229797 0.02015686 C10.79598286 0.02575538 13.68959044 0.03830758 16.58325195 0.05102539 C18.54483938 0.05604058 20.50642801 0.06060346 22.46801758 0.06469727 C27.27729217 0.07572432 32.08650895 0.09298792 36.89575195 0.11352539 C35.23379131 3.69445568 33.45735225 5.52714287 30.39575195 8.05102539 C13.79632193 22.76089493 4.34674276 43.19738428 1.89575195 65.11352539 C-2.43735132 65.23049039 -6.77004385 65.30103429 -11.10424805 65.36352539 C-12.32499023 65.39704102 -13.54573242 65.43055664 -14.8034668 65.46508789 C-22.08282385 65.54378364 -26.95963183 65.13599377 -33.10424805 61.11352539 C-36.36289187 57.32929385 -37.18828547 53.02515271 -37.10424805 48.11352539 C-36.19300426 43.67418893 -34.82458884 39.41756553 -33.41674805 35.11352539 C-33.06418945 33.97657227 -32.71163086 32.83961914 -32.34838867 31.66821289 C-28.80856384 20.51161689 -24.93310651 10.79924216 -14.4675293 4.53540039 C-9.70433253 2.11555736 -5.41558588 -0.01666334 0 0 Z " fill="#70AEFE" transform="translate(84.104248046875,274.886474609375)"/>
<path d="M0 0 C3.71447476 4.0600073 5.81882522 7.6598413 5.59375 13.27734375 C4.68116234 18.55104742 2.95837547 21.52079963 -1.3125 24.9375 C-1.9725 25.2675 -2.6325 25.5975 -3.3125 25.9375 C-3.31614563 27.24184494 -3.31979126 28.54618988 -3.32354736 29.89006042 C-3.36047345 42.17663412 -3.41822022 54.46295662 -3.49640274 66.7493391 C-3.53592767 73.06605768 -3.56809169 79.38263579 -3.58349609 85.69946289 C-3.5986294 91.7944955 -3.63301635 97.88914209 -3.68080902 103.98400307 C-3.69565707 106.31039387 -3.70354297 108.63683978 -3.70438385 110.96327782 C-3.70674487 114.21967195 -3.73375629 117.47499178 -3.76660156 120.73120117 C-3.7615712 121.69505234 -3.75654083 122.6589035 -3.75135803 123.65196228 C-3.81767488 127.89595262 -3.93695093 130.31205347 -6.15911865 134.01289368 C-10.00746761 137.45239441 -13.53951313 137.04550905 -18.5 137 C-19.77230469 136.99097656 -21.04460937 136.98195312 -22.35546875 136.97265625 C-23.81919922 136.95525391 -23.81919922 136.95525391 -25.3125 136.9375 C-25.07080078 135.30361328 -25.07080078 135.30361328 -24.82421875 133.63671875 C-24.16663692 128.34231215 -24.12061205 123.07960916 -24.125 117.75 C-24.12580566 116.73276855 -24.12661133 115.71553711 -24.12744141 114.66748047 C-24.18793224 107.22947951 -24.74270063 100.22433899 -26.3125 92.9375 C-26.50328125 92.02097656 -26.6940625 91.10445313 -26.890625 90.16015625 C-27.33928046 88.08031775 -27.82126712 86.00769569 -28.3125 83.9375 C-24.0225 83.9375 -19.7325 83.9375 -15.3125 83.9375 C-15.30762782 76.46114289 -15.32809026 68.98587982 -15.3927784 61.50977802 C-15.42181365 58.03799381 -15.43987697 54.56688379 -15.43261719 51.0949707 C-15.42475051 47.10042373 -15.46505074 43.10760943 -15.5078125 39.11328125 C-15.49871857 37.87040848 -15.48962463 36.62753571 -15.48025513 35.34700012 C-15.37382669 29.37891748 -15.37382669 29.37891748 -17.65394592 24.08398438 C-19.4296826 22.54606378 -19.4296826 22.54606378 -22.3125 20.9375 C-25.02806222 16.85241793 -24.83265743 12.68496862 -24.3125 7.9375 C-22.54446334 2.73161428 -20.08827899 0.56905169 -15.3125 -2.0625 C-10.04736746 -4.34405744 -4.62091987 -2.87717652 0 0 Z " fill="#FDC400" transform="translate(315.3125,34.0625)"/>
<path d="M0 0 C3.09818479 4.54400436 3.7810678 8.65022057 3 14 C1.64116814 17.71890824 0.67690306 19.52346166 -2.57206726 21.81072998 C-5.21509544 23.77779206 -5.21509544 23.77779206 -5.63923645 26.68292236 C-5.64589828 27.70440369 -5.65256012 28.72588501 -5.65942383 29.77832031 C-5.67906693 30.9392218 -5.69871002 32.10012329 -5.71894836 33.29620361 C-5.71501572 34.54423767 -5.71108307 35.79227173 -5.70703125 37.078125 C-5.72215256 38.35983582 -5.73727386 39.64154663 -5.75285339 40.96209717 C-5.79268574 44.36192634 -5.80289247 47.7612199 -5.80688477 51.16125488 C-5.81621987 54.63371002 -5.85363551 58.1058509 -5.88867188 61.578125 C-5.95322915 68.38541541 -5.98388777 75.19242427 -6 82 C-1.71 82 2.58 82 7 82 C6.71125 82.96292969 6.4225 83.92585938 6.125 84.91796875 C1.79459535 100.80447774 0.98198752 118.7844483 4 135 C1.77144426 135.0814222 -0.45797655 135.13938079 -2.6875 135.1875 C-3.92886719 135.22230469 -5.17023438 135.25710937 -6.44921875 135.29296875 C-10.2457708 134.97972188 -12.01467371 134.30757653 -15 132 C-17.08414842 128.87377738 -17.24898619 128.20071865 -17.24050903 124.6530304 C-17.24325836 123.76542023 -17.24600769 122.87781006 -17.24884033 121.96330261 C-17.24164978 120.99226089 -17.23445923 120.02121918 -17.22705078 119.02075195 C-17.22734283 117.99618896 -17.22763489 116.97162598 -17.22793579 115.91601562 C-17.22654044 112.52335189 -17.2109694 109.13090671 -17.1953125 105.73828125 C-17.19158311 103.38844421 -17.18873579 101.03860562 -17.18673706 98.68876648 C-17.17909483 92.49913248 -17.15944121 86.30959209 -17.1373291 80.11999512 C-17.11688341 73.80592109 -17.10773807 67.49183195 -17.09765625 61.17773438 C-17.07619593 48.78511508 -17.04205282 36.39256532 -17 24 C-17.77859375 23.72285156 -18.5571875 23.44570313 -19.359375 23.16015625 C-23.115084 21.51008883 -24.14977001 19.63438034 -26 16 C-27.1658369 11.56664742 -27.3694561 8.13010102 -25.9375 3.75 C-23.26983476 -0.03636357 -20.39962236 -2.88017623 -16.125 -4.875 C-9.60455776 -5.25855543 -5.0106031 -4.31144918 0 0 Z " fill="#FEC400" transform="translate(118,36)"/>
<path d="M0 0 C6.3965639 3.61127331 10.79488131 7.79870642 13.1640625 14.90625 C13.83340571 22.31291664 13.81526514 28.83120982 9.1640625 34.90625 C5.05244763 39.18003994 1.00903934 42.57340172 -5.0078125 43.27734375 C-12.64548423 43.41909093 -18.08690232 43.22375954 -23.8359375 37.90625 C-29.05035345 32.78566673 -31.12519913 27.87486972 -31.2734375 20.59375 C-31.15452735 14.39643288 -30.12935522 10.42563707 -25.8359375 5.90625 C-18.32436847 -0.75771007 -9.88819397 -3.81362853 0 0 Z " fill="#43516D" transform="translate(214.8359375,356.09375)"/>
<path d="M0 0 C2.64600746 1.0472619 4.72029296 2.07437799 6.66796875 4.171875 C7.12171875 4.584375 7.57546875 4.996875 8.04296875 5.421875 C10.26408262 5.11328022 10.26408262 5.11328022 13.04296875 4.421875 C18.01805847 3.95598031 21.85948162 3.85204786 26.41796875 6.046875 C30.10361751 9.38150959 32.46998215 12.70291519 34.04296875 17.421875 C35.03296875 16.926875 35.03296875 16.926875 36.04296875 16.421875 C41.24384167 15.90348734 45.65983353 15.75592101 50.41796875 18.046875 C55.41834248 22.57102266 58.83273616 26.21582794 59.29296875 33.234375 C59.20035733 39.5551045 56.04186051 43.73351914 52.04296875 48.421875 C52.53796875 49.22625 53.03296875 50.030625 53.54296875 50.859375 C55.61809018 55.78778839 56.1321225 60.28363537 54.3515625 65.4140625 C52.09935991 69.80538639 49.49499166 72.39822822 45.04296875 74.421875 C41.34950094 74.73263574 37.73898704 74.65863062 34.04296875 74.421875 C33.52734375 75.618125 33.01171875 76.814375 32.48046875 78.046875 C30.22546125 82.58105079 27.23513419 85.61088704 23.04296875 88.421875 C17.7399721 90.18954055 12.79571275 90.1229726 7.60546875 88.046875 C5.04296875 86.421875 5.04296875 86.421875 3.04296875 84.421875 C0.7152 83.81507993 0.7152 83.81507993 -1.89453125 83.421875 C-5.37802622 82.84727789 -6.94298851 82.43123683 -9.95703125 80.421875 C-12.6873231 80.70431898 -14.32416233 81.63881609 -16.70703125 83.046875 C-21.11376736 84.91126335 -23.3118062 84.48799223 -27.95703125 83.421875 C-29.95703125 81.859375 -29.95703125 81.859375 -30.95703125 80.421875 C-31.57578125 80.73125 -32.19453125 81.040625 -32.83203125 81.359375 C-37.63462791 83.76067333 -41.58185426 84.03980873 -46.95703125 83.421875 C-50.49417766 81.35853959 -52.5803176 79.30170438 -53.95703125 75.421875 C-53.95703125 74.431875 -53.95703125 73.441875 -53.95703125 72.421875 C-54.67890625 72.339375 -55.40078125 72.256875 -56.14453125 72.171875 C-59.54415434 71.26530884 -61.3813344 69.78293045 -63.95703125 67.421875 C-65.79352161 63.74889428 -65.34365652 59.44024254 -64.95703125 55.421875 C-63.39453125 52.484375 -63.39453125 52.484375 -61.95703125 50.421875 C-62.45203125 48.936875 -62.45203125 48.936875 -62.95703125 47.421875 C-63.44217607 41.91031167 -63.72440441 37.04516438 -61.33203125 31.984375 C-53.88046875 23.94453125 -53.88046875 23.94453125 -47.95703125 23.421875 C-48.01503906 22.865 -48.07304687 22.308125 -48.1328125 21.734375 C-48.51392675 15.28809969 -47.0744606 11.38074086 -42.95703125 6.421875 C-37.47082812 1.32754352 -33.10939247 1.22960954 -25.89453125 1.23828125 C-22.95703125 1.421875 -22.95703125 1.421875 -19.64453125 2.671875 C-16.74374741 3.82068021 -16.74374741 3.82068021 -13.58203125 1.546875 C-12.99679687 1.16660156 -12.4115625 0.78632812 -11.80859375 0.39453125 C-7.99508866 -1.60876573 -4.03453382 -1.19183833 0 0 Z M-15.95703125 5.421875 C-15.66828125 6.081875 -15.37953125 6.741875 -15.08203125 7.421875 C-12.95423672 13.09599374 -11.65159513 18.31315255 -11.95703125 24.421875 C-13.93703125 24.421875 -15.91703125 24.421875 -17.95703125 24.421875 C-17.95703125 22.441875 -17.95703125 20.461875 -17.95703125 18.421875 C-16.96703125 18.091875 -15.97703125 17.761875 -14.95703125 17.421875 C-14.45506831 14.13261005 -14.45506831 14.13261005 -14.95703125 10.421875 C-17.61964143 7.50858731 -17.61964143 7.50858731 -20.95703125 5.421875 C-21.88515625 4.7721875 -21.88515625 4.7721875 -22.83203125 4.109375 C-27.5285617 2.58990927 -31.62514788 2.92568316 -36.14453125 4.609375 C-40.25010729 7.25519067 -43.38838294 9.71593008 -44.95703125 14.421875 C-45.1788291 16.31400237 -45.3631714 18.21071972 -45.51953125 20.109375 C-45.60332031 21.10324219 -45.68710937 22.09710938 -45.7734375 23.12109375 C-45.86431641 24.25998047 -45.86431641 24.25998047 -45.95703125 25.421875 C-47.00890625 25.669375 -48.06078125 25.916875 -49.14453125 26.171875 C-53.46213011 27.4453486 -56.61261939 29.12386869 -58.96484375 33.14453125 C-61.24925227 38.32046588 -61.25132948 42.94507602 -59.95703125 48.421875 C-57.93306546 50.44584079 -54.23010802 50.40796536 -51.45703125 50.921875 C-44.09216639 52.28673986 -44.09216639 52.28673986 -42.95703125 53.421875 C-42.91639293 55.08804615 -42.91431025 56.75575595 -42.95703125 58.421875 C-46.42203125 58.916875 -46.42203125 58.916875 -49.95703125 59.421875 C-50.28703125 57.111875 -50.61703125 54.801875 -50.95703125 52.421875 C-54.20700245 51.39663172 -54.20700245 51.39663172 -57.95703125 51.421875 C-61.44842427 54.46755827 -62.75484738 55.97770448 -63.39453125 60.546875 C-62.75568955 64.74497762 -62.07077677 66.57904055 -58.64453125 69.171875 C-55.80293158 70.49354927 -54.04676249 70.68670911 -50.95703125 70.421875 C-50.89515625 71.494375 -50.83328125 72.566875 -50.76953125 73.671875 C-50.26857371 77.47940951 -50.26857371 77.47940951 -47.76953125 79.859375 C-44.43024875 81.71453194 -42.72307619 81.97108989 -38.95703125 81.421875 C-36.08248489 80.64743603 -36.08248489 80.64743603 -33.95703125 78.421875 C-32.92937753 75.4798492 -32.47881596 72.48672691 -31.95703125 69.421875 C-31.34428176 67.06943114 -30.65113611 64.75208416 -29.95703125 62.421875 C-28.30088468 62.03968733 -26.63246101 61.70792398 -24.95703125 61.421875 C-23.95703125 62.421875 -23.95703125 62.421875 -23.89453125 64.984375 C-23.91515625 65.78875 -23.93578125 66.593125 -23.95703125 67.421875 C-26.26703125 68.411875 -28.57703125 69.401875 -30.95703125 70.421875 C-31.37474929 73.75387685 -31.37474929 73.75387685 -30.95703125 77.421875 C-28.25197125 80.61876409 -26.60087691 81.32989705 -22.45703125 81.921875 C-18.43130805 81.34677169 -16.76489877 80.31482941 -13.95703125 77.421875 C-13.95703125 76.761875 -13.95703125 76.101875 -13.95703125 75.421875 C-13.37695312 75.7828125 -12.796875 76.14375 -12.19921875 76.515625 C-7.64533644 79.22090162 -4.42918449 81.12343311 1.04296875 80.421875 C1.02234375 79.37 1.00171875 78.318125 0.98046875 77.234375 C1.03241909 74.06540422 1.3969653 71.49039138 2.04296875 68.421875 C2.07999665 66.7556197 2.09056837 65.08786181 2.04296875 63.421875 C4.35296875 63.751875 6.66296875 64.081875 9.04296875 64.421875 C9.04296875 66.071875 9.04296875 67.721875 9.04296875 69.421875 C7.06296875 70.081875 5.08296875 70.741875 3.04296875 71.421875 C2.3867156 77.88432082 2.3867156 77.88432082 5.41796875 83.421875 C10.38916934 87.2094564 14.93106334 87.0434247 21.04296875 86.421875 C25.51960002 84.26349921 28.03237352 81.97216947 30.04296875 77.421875 C30.76220083 73.72663548 30.76220083 73.72663548 31.04296875 70.421875 C31.55859375 70.751875 32.07421875 71.081875 32.60546875 71.421875 C36.66543085 73.08750048 40.44863839 72.80147747 44.66796875 71.796875 C48.57466778 69.53510188 51.28270939 66.74901036 52.68359375 62.4609375 C53.55524831 57.51524532 52.53575336 54.64043357 50.04296875 50.421875 C49.35546875 48.046875 49.35546875 48.046875 49.04296875 46.421875 C49.82671875 45.844375 50.61046875 45.266875 51.41796875 44.671875 C54.53673525 41.99864657 55.80102456 40.12673757 56.37890625 36.0546875 C56.46779806 30.347833 56.15883797 26.74353768 52.04296875 22.421875 C48.19789039 19.62313433 44.66182469 18.0493597 39.85546875 18.421875 C35.25134117 19.62951502 32.81213783 21.43918552 29.68359375 24.9453125 C27.74238754 26.69239809 26.07807658 27.35462182 23.60546875 28.171875 C22.84363281 28.43484375 22.08179688 28.6978125 21.296875 28.96875 C18.83783786 29.46311449 17.39624321 29.21523404 15.04296875 28.421875 C14.48949235 26.34633852 14.04296875 24.57821536 14.04296875 22.421875 C16.02296875 22.421875 18.00296875 22.421875 20.04296875 22.421875 C21.03296875 24.401875 21.03296875 24.401875 22.04296875 26.421875 C25.10214042 26.08196704 26.84698383 25.56489102 29.35546875 23.734375 C31.24791134 21.49906699 31.24791134 21.49906699 31.54296875 18.546875 C30.90391663 14.55279924 29.64859251 12.50748209 27.04296875 9.421875 C22.60728686 6.22405782 19.37493849 6.23611104 14.19140625 7 C12.03064064 7.37646314 12.03064064 7.37646314 9.96484375 8.1171875 C9.01351562 8.26800781 9.01351562 8.26800781 8.04296875 8.421875 C4.91796875 6.046875 4.91796875 6.046875 2.04296875 3.421875 C-3.69020277 0.55528924 -10.79033022 2.1586954 -15.95703125 5.421875 Z " fill="#F89983" transform="translate(417.95703125,97.578125)"/>
<path d="M0 0 C0.70664795 0.32145996 1.4132959 0.64291992 2.14135742 0.97412109 C5.16568485 2.0594592 7.53659945 2.31133474 10.73828125 2.4140625 C12.33833008 2.47207031 12.33833008 2.47207031 13.97070312 2.53125 C15.07349609 2.5621875 16.17628906 2.593125 17.3125 2.625 C18.99569336 2.68300781 18.99569336 2.68300781 20.71289062 2.7421875 C23.47509852 2.83622011 26.237304 2.92187341 29 3 C27.3424738 19.42682684 24.6098648 35.70400417 22 52 C20.0387319 51.02824391 18.10012864 50.0576828 16.203125 48.96484375 C8.83214751 45.08770959 1.14759927 45.19994109 -7 45 C-5.51845354 33.92889401 -4.01071338 22.86201528 -2.375 11.8125 C-2.25213623 10.97041992 -2.12927246 10.12833984 -2.00268555 9.26074219 C-1.52438391 6.06591138 -1.02372162 3.07116487 0 0 Z " fill="#41506C" transform="translate(54,337)"/>
<path d="M0 0 C0.67690887 -0.00700928 1.35381775 -0.01401855 2.05123901 -0.02124023 C4.28327762 -0.03881012 6.51404281 -0.0272026 8.74609375 -0.01367188 C10.30021406 -0.01636712 11.85433272 -0.02024981 13.40844727 -0.02526855 C16.66341224 -0.03116218 19.91793773 -0.02260554 23.17285156 -0.00390625 C27.34282919 0.01888385 31.51177706 0.00575995 35.68171692 -0.01819611 C38.89025618 -0.03265812 42.09855174 -0.02804639 45.30709839 -0.01768494 C46.84447349 -0.01501873 48.3818708 -0.01828372 49.91921997 -0.02760315 C52.0691376 -0.03777617 54.2173935 -0.02226075 56.3671875 0 C57.58978271 0.00318237 58.81237793 0.00636475 60.07202148 0.00964355 C63.77945264 0.61484642 64.977221 1.52244481 67.18359375 4.51757812 C67.57421875 7.75195312 67.57421875 7.75195312 67.43359375 11.26757812 C67.3975 12.43804687 67.36140625 13.60851562 67.32421875 14.81445312 C67.2778125 15.70648438 67.23140625 16.59851563 67.18359375 17.51757812 C65.59975887 17.39910229 64.01655087 17.2722554 62.43359375 17.14257812 C61.551875 17.07296875 60.67015625 17.00335938 59.76171875 16.93164062 C57.72724181 16.69620989 55.69432153 16.424795 53.68212891 16.04321289 C45.13087006 14.42527008 36.73124351 14.16551932 28.05859375 14.20507812 C26.97307724 14.20531982 26.97307724 14.20531982 25.8656311 14.20556641 C15.8540973 14.22106307 6.16535335 14.74509603 -3.6484375 16.86132812 C-6.81640625 17.51757812 -6.81640625 17.51757812 -10.81640625 17.51757812 C-10.92472794 15.4353945 -11.00214166 13.35158683 -11.06640625 11.26757812 C-11.1128125 10.10742188 -11.15921875 8.94726562 -11.20703125 7.75195312 C-10.81640625 4.51757812 -10.81640625 4.51757812 -9.21801758 2.34777832 C-6.01109601 -0.09612607 -4.01027041 0.0104386 0 0 Z " fill="#41506C" transform="translate(177.81640625,236.482421875)"/>
<path d="M0 0 C2.71003427 -0.1358035 5.41318941 -0.23444624 8.125 -0.3125 C8.88554687 -0.35439453 9.64609375 -0.39628906 10.4296875 -0.43945312 C14.5959395 -0.52924304 17.19489224 -0.28883246 20.4921875 2.39453125 C24.59254628 6.65456132 24.18900406 10.10634982 24.23828125 15.76953125 C24.246353 16.64268478 24.25442474 17.51583832 24.26274109 18.41545105 C24.27658364 20.2656353 24.28730503 22.11584512 24.29516602 23.96606445 C24.3123692 26.79102197 24.35625166 29.61480621 24.40039062 32.43945312 C24.41051847 34.23697056 24.41903429 36.03449795 24.42578125 37.83203125 C24.44328934 38.67490189 24.46079742 39.51777252 24.47883606 40.38618469 C24.4639932 44.41452704 24.30657056 46.4981652 22.16088867 50.01049805 C18.3335895 53.53424237 14.80585093 53.10831056 9.8125 53.0625 C8.54019531 53.05347656 7.26789063 53.04445312 5.95703125 53.03515625 C4.49330078 53.01775391 4.49330078 53.01775391 3 53 C3.16113281 51.91074219 3.32226562 50.82148438 3.48828125 49.69921875 C4.14586308 44.40481215 4.19188795 39.14210916 4.1875 33.8125 C4.18669434 32.79526855 4.18588867 31.77803711 4.18505859 30.72998047 C4.12456776 23.29197951 3.56979937 16.28683899 2 9 C1.80921875 8.08347656 1.6184375 7.16695313 1.421875 6.22265625 C0.97321954 4.14281775 0.49123288 2.07019569 0 0 Z " fill="#42516E" transform="translate(287,118)"/>
<path d="M0 0 C0.74886475 0.00523682 1.49772949 0.01047363 2.26928711 0.01586914 C3.07817383 0.0190918 3.88706055 0.02231445 4.72045898 0.02563477 C5.5705957 0.03401367 6.42073242 0.04239258 7.29663086 0.05102539 C8.15063477 0.05553711 9.00463867 0.06004883 9.88452148 0.06469727 C12.00108749 0.07652166 14.11761771 0.0944577 16.23413086 0.11352539 C15.94538086 1.07645508 15.65663086 2.03938477 15.35913086 3.03149414 C11.02872621 18.91800313 10.21611838 36.89797369 13.23413086 53.11352539 C11.00557512 53.19494759 8.77615431 53.25290618 6.54663086 53.30102539 C4.68458008 53.35323242 4.68458008 53.35323242 2.78491211 53.40649414 C-1.01163994 53.09324727 -2.78054286 52.42110192 -5.76586914 50.11352539 C-7.77779454 47.09563729 -8.0212577 46.47619615 -8.07226562 43.08862305 C-8.08825302 42.28413727 -8.10424042 41.47965149 -8.12071228 40.65078735 C-8.12607498 39.78513153 -8.13143768 38.91947571 -8.13696289 38.02758789 C-8.14599136 37.13365326 -8.15501984 36.23971863 -8.1643219 35.31869507 C-8.17882891 33.4274226 -8.18771226 31.53609989 -8.19140625 29.64477539 C-8.20329766 26.75589093 -8.25247282 23.86914614 -8.30297852 20.98071289 C-8.3124435 19.14218164 -8.31967818 17.30363728 -8.32446289 15.46508789 C-8.34399521 14.60348053 -8.36352753 13.74187317 -8.38365173 12.85415649 C-8.35006846 8.37403088 -8.22981905 6.68060074 -5.29345703 3.09155273 C-4.45935303 2.43880371 -3.62524902 1.78605469 -2.76586914 1.11352539 C-1.76586914 0.11352539 -1.76586914 0.11352539 0 0 Z " fill="#43526E" transform="translate(108.765869140625,117.886474609375)"/>
<path d="M0 0 C4.37412668 -0.09991855 8.74762437 -0.17195484 13.12255859 -0.21972656 C14.60640048 -0.23966981 16.09016555 -0.2668349 17.57373047 -0.30175781 C30.83688939 -0.60583563 39.90719089 1.13204801 49.79296875 10.55078125 C53.54873024 14.7186794 57 19.24366736 57 25 C52.3047507 25.24885128 47.61339834 25.42936152 42.91308594 25.54931641 C41.31800447 25.59934425 39.72337567 25.66739914 38.12988281 25.75439453 C24.8948285 26.45838678 24.8948285 26.45838678 20.24414062 22.87890625 C18.2183523 20.34340345 16.60932383 17.81259142 15 15 C10.98690206 9.91425717 6.82756663 5.83627505 1.50390625 2.12890625 C1.00761719 1.75636719 0.51132812 1.38382812 0 1 C0 0.67 0 0.34 0 0 Z " fill="#70AFFF" transform="translate(289,275)"/>
<path d="M0 0 C18.48 0 36.96 0 56 0 C56 5.28 56 10.56 56 16 C55 17 55 17 52.79173279 17.12025452 C51.81688431 17.11803391 50.84203583 17.11581329 49.83764648 17.11352539 C48.73658066 17.11344986 47.63551483 17.11337433 46.50108337 17.11329651 C45.3031868 17.10813522 44.10529022 17.10297394 42.87109375 17.09765625 C41.65172623 17.0962413 40.4323587 17.09482635 39.17604065 17.09336853 C35.2631693 17.08774967 31.35035419 17.07519396 27.4375 17.0625 C24.79231853 17.05748743 22.14713617 17.0529241 19.50195312 17.04882812 C13.00128026 17.03777411 6.50064968 17.02049683 0 17 C0 11.39 0 5.78 0 0 Z " fill="#6FACFA" transform="translate(178,221)"/>
<path d="M0 0 C15.18 0 30.36 0 46 0 C44.07273353 8.67269912 42.89132834 13.91936506 36 19.375 C35.01 19.91125 34.02 20.4475 33 21 C32.2575 21.4125 31.515 21.825 30.75 22.25 C23.27925756 24.28747521 17.01316057 23.36618818 10.265625 19.62109375 C4.88258958 15.76943909 1.46642751 10.45228103 0 4 C0 2.68 0 1.36 0 0 Z " fill="#43526F" transform="translate(183,184)"/>
<path d="M0 0 C3.63 0 7.26 0 11 0 C11 21.45 11 42.9 11 65 C8.69 63.02 6.38 61.04 4 59 C2.68 58.67 1.36 58.34 0 58 C0 38.86 0 19.72 0 0 Z " fill="#B3D3FD" transform="translate(300,60)"/>
<path d="M0 0 C3.63 0 7.26 0 11 0 C11 19.14 11 38.28 11 58 C9.02 58.66 7.04 59.32 5 60 C3.35 61.32 1.7 62.64 0 64 C0 42.88 0 21.76 0 0 Z " fill="#B2D4FD" transform="translate(101,60)"/>
<path d="M0 0 C3.70390021 2.02666238 5.65363011 3.48044516 8 7 C8.72517392 11.50282411 8.60000036 14.99285654 6.25 18.9375 C2.92728316 21.98332377 1.13018796 22.85349415 -3.375 23.4375 C-8.7292169 22.79130141 -11.08357786 20.41635834 -14.4375 16.1875 C-15.36167475 12.59348708 -15.23765027 9.45483123 -14 6 C-10.25670566 1.00191122 -6.30648396 -1.14663345 0 0 Z " fill="#F9C102" transform="translate(172,132)"/>
<path d="M0 0 C3.70390021 2.02666238 5.65363011 3.48044516 8 7 C8.72517392 11.50282411 8.60000036 14.99285654 6.25 18.9375 C2.92728316 21.98332377 1.13018796 22.85349415 -3.375 23.4375 C-8.1853299 22.85694294 -9.61392593 21.38607407 -13 18 C-14.74221711 14.51556578 -14.58675154 10.80112955 -14 7 C-10.60242193 0.86407543 -6.79897031 -0.56658086 0 0 Z " fill="#FAC101" transform="translate(246,132)"/>
<path d="M0 0 C2.5625 0.1875 2.5625 0.1875 4.5625 2.1875 C4.1875 5.3125 4.1875 5.3125 3.5625 8.1875 C-0.95178571 9.31607143 -0.95178571 9.31607143 -3.5625 8.625 C-4.18125 8.480625 -4.8 8.33625 -5.4375 8.1875 C-8.73672197 10.38698132 -8.86559901 10.69074145 -9.625 14.3125 C-9.893125 15.59125 -10.16125 16.87 -10.4375 18.1875 C-9.798125 18.414375 -9.15875 18.64125 -8.5 18.875 C-6.4375 20.1875 -6.4375 20.1875 -5.5625 22.6875 C-5.52125 23.5125 -5.48 24.3375 -5.4375 25.1875 C-7.4375 27.1875 -7.4375 27.1875 -9.9375 27.4375 C-12.4375 27.1875 -12.4375 27.1875 -14.4375 25.1875 C-14.14212173 23.51368981 -13.79856097 21.84838045 -13.4375 20.1875 C-13.34325421 17.51389576 -13.39213526 14.86401974 -13.4375 12.1875 C-19.83891012 11.67538719 -23.41760898 12.06861506 -28.4375 16.1875 C-28.3125 14.4375 -28.3125 14.4375 -27.4375 12.1875 C-24.16487946 9.38239668 -22.12439232 8.25855783 -17.8125 7.8125 C-14.77347416 8.15016954 -12.97941903 8.56067182 -10.4375 10.1875 C-10.19 9.548125 -9.9425 8.90875 -9.6875 8.25 C-8.4375 6.1875 -8.4375 6.1875 -6.3125 5.4375 C-5.69375 5.355 -5.075 5.2725 -4.4375 5.1875 C-4.293125 4.548125 -4.14875 3.90875 -4 3.25 C-3.20291662 0.32736095 -3.07875941 0.23682765 0 0 Z " fill="#F89780" transform="translate(455.4375,128.8125)"/>
<path d="M0 0 C0.6875 2.3125 0.6875 2.3125 1 5 C-0.125 6.875 -0.125 6.875 -2 8 C-4.6875 7.6875 -4.6875 7.6875 -7 7 C-7.33 6.01 -7.66 5.02 -8 4 C-10.64 4.33 -13.28 4.66 -16 5 C-15.6596875 6.1446875 -15.6596875 6.1446875 -15.3125 7.3125 C-15 10 -15 10 -16.125 11.875 C-18 13 -18 13 -20.625 12.75 C-23 12 -23 12 -24 11 C-24.1875 8.5625 -24.1875 8.5625 -24 6 C-20.92862845 2.92862845 -17.08611111 2.26346857 -13 1 C-11.783125 0.5875 -10.56625 0.175 -9.3125 -0.25 C-5.79783458 -1.0457733 -3.47398963 -0.84731454 0 0 Z " fill="#F89780" transform="translate(401,129)"/>
<path d="M0 0 C3 0.125 3 0.125 4 1.125 C4.125 4.125 4.125 4.125 4 7.125 C3 8.125 3 8.125 0.4375 8.1875 C-0.366875 8.166875 -1.17125 8.14625 -2 8.125 C-2.2475 8.74375 -2.495 9.3625 -2.75 10 C-4.84322883 13.55848901 -7.60392185 13.99537442 -11.4375 15.25 C-14.52113744 16.00738463 -16.86328749 16.48348143 -20 16.125 C-20.66 15.465 -21.32 14.805 -22 14.125 C-21.44444444 9.56944444 -21.44444444 9.56944444 -20 8.125 C-18.33382885 8.08436168 -16.66611905 8.082279 -15 8.125 C-14.34 9.445 -13.68 10.765 -13 12.125 C-11.68277821 11.70192877 -10.37127336 11.26102514 -9.0625 10.8125 C-8.33160156 10.56886719 -7.60070312 10.32523438 -6.84765625 10.07421875 C-4.64067976 9.21259559 -4.64067976 9.21259559 -4 6.125 C-4 5.25875 -4 4.3925 -4 3.5 C-4 -0.073288 -3.61557889 0.15064912 0 0 Z " fill="#F8967F" transform="translate(412,135.875)"/>
</svg>
